<svg xmlns="http://www.w3.org/2000/svg" width="40" height="40" viewBox="0 0 40 40">
    <g fill="none" fill-rule="evenodd">
        <path fill="#3F3F3F" d="M36.853 2.988h-5.528a1.453 1.453 0 0 1-1.445-1.449C29.88.67 30.518 0 31.325 0h7.071c.331 0 .634.112.875.305.347.26.57.665.57 1.118v7.114c0 .786-.67 1.423-1.494 1.423-.826 0-1.494-.637-1.494-1.423V2.988zm-33.865 0v5.55c0 .785-.669 1.422-1.494 1.422S0 9.323 0 8.537V1.423C0 .97.223.566.57.305.81.112 1.112 0 1.444 0h7.07C9.324 0 9.96.669 9.96 1.54c0 .78-.637 1.448-1.444 1.448H2.988zm0 33.865h5.528c.807 0 1.444.668 1.444 1.448 0 .87-.637 1.54-1.444 1.54H1.445c-.332 0-.634-.113-.876-.306A1.397 1.397 0 0 1 0 38.418v-7.115c0-.785.669-1.423 1.494-1.423s1.494.638 1.494 1.423v5.55zm0-20.49v7.115c0 .785-.669 1.422-1.494 1.422S0 24.263 0 23.478v-7.115c0-.786.669-1.423 1.494-1.423s1.494.637 1.494 1.423zm36.853 0v7.115c0 .785-.67 1.422-1.494 1.422-.826 0-1.494-.637-1.494-1.422v-7.115c0-.786.668-1.423 1.494-1.423.825 0 1.494.637 1.494 1.423zM23.406 39.841h-7.968a1.494 1.494 0 0 1 0-2.988h7.968a1.494 1.494 0 1 1 0 2.988zm0-36.853h-7.968a1.494 1.494 0 0 1 0-2.988h7.968a1.494 1.494 0 0 1 0 2.988zm8.467 32.869h-1.909c-1.146 0-2.076-.892-2.076-1.992s.93-1.992 2.076-1.992h1.909v-1.909c0-1.146.891-2.076 1.992-2.076 1.1 0 1.992.93 1.992 2.076v1.909h1.908c1.146 0 2.076.891 2.076 1.992 0 1.1-.93 1.992-2.076 1.992h-1.908v1.908c0 1.146-.892 2.076-1.992 2.076s-1.992-.93-1.992-2.076v-1.908z"/>
        <path fill="#00A1B7" d="M14.648 14.874c.048.093.097.19.147.294.601 1.237 1.1 2.594 2.193 5.825l.01.027c1.115 3.297 1.617 4.674 2.294 6.116.472 1.005.942 1.801 1.463 2.418.783.927 1.721 1.505 2.879 1.505 1.507 0 2.79-.641 3.684-1.796.703-.906 1.13-2.064 1.36-3.457.346-2.081.26-4.696-.142-7.87-.454-3.588-1.196-6.498-2.253-8.746a2.167 2.167 0 1 0-3.922 1.845c.84 1.785 1.474 4.272 1.876 7.444.353 2.792.427 5.046.166 6.617-.117.708-.294 1.207-.481 1.473-.206-.29-.446-.72-.707-1.275-.58-1.235-1.055-2.54-2.112-5.663l-.01-.027c-1.159-3.427-1.687-4.863-2.4-6.33-.505-1.04-1.014-1.849-1.595-2.454-.905-.943-2.04-1.436-3.315-1.154-1.35.299-2.315 1.264-2.888 2.64-.436 1.046-.674 2.38-.753 4.035-.145 3.032.242 7.316 1.151 12.9a2.167 2.167 0 1 0 4.278-.697c-.865-5.31-1.228-9.326-1.1-11.996.032-.66.093-1.22.177-1.674z"/>
    </g>
</svg>
