<svg width="106" height="16" viewBox="0 0 106 16" fill="none" xmlns="http://www.w3.org/2000/svg">
<path fill-rule="evenodd" clip-rule="evenodd" d="M3.73924 1.07955C3.73924 1.37316 3.50008 1.625 3.19691 1.625H1.12177V3.71429C1.12177 4.01015 0.870654 4.25 0.560886 4.25C0.251117 4.25 0 4.01015 0 3.71429V1.07955V1.03571C0 0.865042 0.0835629 0.713011 0.213742 0.614907C0.304457 0.542347 0.418012 0.5 0.542332 0.5H0.560886H3.19691C3.50008 0.5 3.73924 0.75184 3.73924 1.07955ZM14.9575 3.71429C14.9575 4.01015 14.7063 4.25 14.3966 4.25C14.0868 4.25 13.8357 4.01015 13.8357 3.71429V1.625H11.7627C11.4596 1.625 11.2204 1.37316 11.2204 1.07955C11.2204 0.75184 11.4596 0.5 11.7627 0.5H14.3966H14.4173C14.5587 0.5 14.6862 0.554777 14.782 0.646482C14.8873 0.741661 14.954 0.875426 14.9573 1.0241C14.9589 1.04231 14.9596 1.0608 14.9596 1.07955C14.9596 1.09586 14.9589 1.11204 14.9575 1.12806V3.71429ZM3.19691 14.375C3.50008 14.375 3.73924 14.6268 3.73924 14.9205C3.73924 15.2482 3.50008 15.5 3.19691 15.5H0.560886H0.542332C0.418007 15.5 0.304447 15.4576 0.21373 15.3851C0.0835578 15.287 0 15.135 0 14.9643V14.9205V12.2857C0 11.9899 0.251117 11.75 0.560886 11.75C0.870654 11.75 1.12177 11.9899 1.12177 12.2857V14.375H3.19691ZM0.560886 6.125C0.870654 6.125 1.12177 6.36485 1.12177 6.66071V9.33928C1.12177 9.63515 0.870654 9.87499 0.560886 9.87499C0.251117 9.87499 0 9.63515 0 9.33928V6.66071C0 6.36485 0.251117 6.125 0.560886 6.125ZM14.9569 6.66071C14.9569 6.36485 14.7058 6.125 14.3961 6.125C14.0863 6.125 13.8352 6.36485 13.8352 6.66071V9.33928C13.8352 9.63515 14.0863 9.87499 14.3961 9.87499C14.7058 9.87499 14.9569 9.63515 14.9569 9.33928V6.66071ZM9.34809 14.9375C9.34809 15.2482 9.09697 15.5 8.7872 15.5H5.79582C5.48605 15.5 5.23493 15.2482 5.23493 14.9375C5.23493 14.6268 5.48605 14.375 5.79582 14.375H8.7872C9.09697 14.375 9.34809 14.6268 9.34809 14.9375ZM8.7872 1.625C9.09697 1.625 9.34809 1.37316 9.34809 1.0625C9.34809 0.75184 9.09697 0.5 8.7872 0.5H5.79582C5.48605 0.5 5.23493 0.75184 5.23493 1.0625C5.23493 1.37316 5.48605 1.625 5.79582 1.625H8.7872ZM11.9656 14.7185C11.9656 15.1501 12.3004 15.5 12.7134 15.5C13.1264 15.5 13.4612 15.1501 13.4612 14.7185V14H14.1777C14.6081 14 14.9569 13.6642 14.9569 13.25C14.9569 12.8358 14.6081 12.5 14.1777 12.5H13.4612V11.7815C13.4612 11.3499 13.1264 11 12.7134 11C12.3004 11 11.9656 11.3499 11.9656 11.7815V12.5H11.2491C10.8187 12.5 10.4699 12.8358 10.4699 13.25C10.4699 13.6642 10.8187 14 11.2491 14H11.9656V14.7185Z" fill="#161616"/>
<path fill-rule="evenodd" clip-rule="evenodd" d="M5.6256 6.09989C5.64372 6.13495 5.66222 6.17193 5.68105 6.2108C5.90664 6.67645 6.09375 7.18724 6.50431 8.40392L6.50769 8.41395C6.92654 9.65519 7.11513 10.1738 7.36933 10.7168C7.5464 11.095 7.72294 11.3948 7.9184 11.627C8.21221 11.9762 8.56452 12.1939 8.99918 12.1939C9.56495 12.1939 10.0465 11.9523 10.3824 11.5177C10.6462 11.1765 10.8063 10.7404 10.8931 10.2159C11.0228 9.43233 10.9905 8.4481 10.8396 7.2526C10.6692 5.90193 10.3906 4.80643 9.99368 3.96009C9.80246 3.55235 9.31786 3.37727 8.91129 3.56904C8.50472 3.76081 8.33015 4.24681 8.52137 4.65455C8.83666 5.32684 9.07477 6.26316 9.22549 7.45748C9.35816 8.50867 9.38602 9.35701 9.28808 9.9487C9.24394 10.2154 9.17767 10.4029 9.10729 10.5034C9.03004 10.3937 8.9399 10.2322 8.84208 10.0233C8.62428 9.55808 8.44576 9.06714 8.04886 7.89091L8.04547 7.88087C7.61015 6.59082 7.41206 6.05006 7.1445 5.49775C6.95464 5.10584 6.76365 4.80168 6.54549 4.5737C6.20575 4.21867 5.77977 4.03312 5.30089 4.13929C4.79399 4.25167 4.432 4.61527 4.21669 5.13313C4.05295 5.52696 3.96383 6.02896 3.9341 6.65222C3.87963 7.7941 4.02503 9.40686 4.36626 11.5091C4.43845 11.9538 4.85645 12.2557 5.29991 12.1833C5.74336 12.1109 6.04433 11.6917 5.97214 11.2469C5.64759 9.24747 5.5113 7.73568 5.55926 6.73019C5.5711 6.48201 5.59406 6.27118 5.6256 6.09989Z" fill="#00A1B7"/>
<path fill-rule="evenodd" clip-rule="evenodd" d="M45.5217 6.5353C46.3373 6.5353 47.0442 6.84885 47.6423 7.47597C48.2404 8.10308 48.5395 8.86338 48.5395 9.75686C48.5395 10.6503 48.2394 11.4106 47.6392 12.0378C47.039 12.6649 46.3331 12.9784 45.5217 12.9784C45.2916 12.9784 45.0668 12.9512 44.8472 12.8966C44.6276 12.8421 44.4405 12.7739 44.2857 12.6921C44.1309 12.6103 43.994 12.5264 43.8747 12.4405C43.7555 12.3545 43.6708 12.2863 43.6206 12.236L43.5265 12.1416V12.8526H42.2466V3.82968H43.5265V7.37844C43.5851 7.31971 43.6687 7.24211 43.7775 7.14564C43.8862 7.04916 44.1142 6.92332 44.4614 6.76811C44.8085 6.6129 45.162 6.5353 45.5217 6.5353ZM26.6444 3.82969H25.2328V10.342L20.2198 3.82969H19.0026V12.8526H20.4143V6.34653L25.4273 12.8526H26.6444V3.82969ZM29.8103 12.8526V6.66744H28.5241V12.8526H29.8103ZM29.942 4.73576C29.942 4.95808 29.8688 5.14264 29.7224 5.28946C29.576 5.43627 29.392 5.50968 29.1703 5.50968C28.9486 5.50968 28.7646 5.43627 28.6182 5.28946C28.4718 5.14264 28.3986 4.95808 28.3986 4.73576C28.3986 4.51344 28.4718 4.32887 28.6182 4.18205C28.7646 4.03524 28.9486 3.96183 29.1703 3.96183C29.392 3.96183 29.576 4.03524 29.7224 4.18205C29.8688 4.32887 29.942 4.51344 29.942 4.73576ZM39.338 9.24721L39.338 12.8526H40.6242V9.24721C40.6242 8.36211 40.4182 7.68886 40.0062 7.22744C39.5942 6.76602 39.0285 6.5353 38.309 6.5353C38.0455 6.5353 37.7914 6.572 37.5467 6.64541C37.302 6.71882 37.1044 6.80062 36.9538 6.89081C36.8033 6.98099 36.6621 7.08691 36.5303 7.20855C36.3986 7.3302 36.3128 7.41409 36.2731 7.46023C36.2334 7.50637 36.2051 7.54203 36.1884 7.5672L36.1257 7.46652C36.0838 7.39941 36.0138 7.31341 35.9155 7.20854C35.8172 7.10367 35.7011 6.99985 35.5673 6.89708C35.4334 6.79431 35.2546 6.70832 35.0308 6.6391C34.807 6.56989 34.5718 6.53528 34.325 6.53528C34.0155 6.53528 33.7175 6.60659 33.4309 6.74922C33.1444 6.89184 32.9562 7.00615 32.8663 7.09214C32.7763 7.17814 32.7063 7.2505 32.6561 7.30922V6.66742H31.3699V12.8526L32.6561 12.8526V9.50517C32.6561 8.94308 32.791 8.50158 33.0608 8.18068C33.3306 7.85978 33.6662 7.69933 34.0678 7.69933C34.4609 7.69933 34.7736 7.83042 35.0057 8.09259C35.2379 8.35476 35.3539 8.73963 35.3539 9.2472V12.8526H36.6401V9.50518C36.6401 8.94308 36.775 8.50158 37.0448 8.18069C37.3146 7.85979 37.6503 7.69934 38.0518 7.69934C38.445 7.69934 38.7576 7.83042 38.9898 8.0926C39.2219 8.35477 39.338 8.73964 39.338 9.24721ZM46.6887 11.2166C46.3122 11.6193 45.8804 11.8207 45.3931 11.8207C44.9058 11.8207 44.4729 11.6193 44.0943 11.2166C43.7158 10.8139 43.5265 10.3284 43.5265 9.76001C43.5265 9.19163 43.7158 8.70608 44.0943 8.30339C44.4729 7.90069 44.9058 7.69934 45.3931 7.69934C45.8804 7.69934 46.3122 7.90069 46.6887 8.30339C47.0651 8.70608 47.2533 9.19163 47.2533 9.76001C47.2533 10.3284 47.0651 10.8139 46.6887 11.2166ZM54.0142 12.8526L54.0143 12.2108L53.9327 12.2926C53.895 12.3303 53.8166 12.3922 53.6974 12.4782C53.5782 12.5642 53.4496 12.6418 53.3116 12.711C53.1735 12.7802 52.9999 12.8421 52.7908 12.8966C52.5817 12.9511 52.3684 12.9784 52.1509 12.9784C51.4063 12.9784 50.803 12.7341 50.3408 12.2454C49.8786 11.7567 49.6475 11.0992 49.6475 10.2728V6.66743H50.9337V10.2728C50.9337 10.7175 51.0749 11.0866 51.3572 11.3802C51.6395 11.6739 51.9898 11.8207 52.4081 11.8207C52.8975 11.8207 53.2875 11.6623 53.5782 11.3456C53.8689 11.0289 54.0142 10.5853 54.0142 10.0148V6.66744L55.3004 6.66743V12.8526H54.0142ZM59.9467 8.21528L60.7812 7.37844L60.6996 7.28406C60.6494 7.23372 60.5689 7.16556 60.4581 7.07956C60.3472 6.99357 60.2186 6.90968 60.0722 6.82788C59.9258 6.74608 59.7366 6.67687 59.5044 6.62024C59.2723 6.56361 59.0329 6.53529 58.7861 6.53529C58.1629 6.53529 57.6432 6.71777 57.227 7.08271C56.8109 7.44765 56.6028 7.86713 56.6028 8.34113C56.6028 8.6851 56.6801 8.97978 56.8349 9.22517C56.9897 9.47057 57.1852 9.65094 57.4215 9.7663C57.6578 9.88165 57.9109 9.98652 58.1807 10.0809C58.4504 10.1753 58.7024 10.255 58.9367 10.32C59.1709 10.385 59.3654 10.4773 59.5201 10.5969C59.6749 10.7164 59.7523 10.8664 59.7523 11.0467C59.7523 11.2816 59.6665 11.4694 59.495 11.6099C59.3236 11.7504 59.0663 11.8207 58.7234 11.8207C58.4389 11.8207 58.1618 11.7504 57.8921 11.6099C57.6223 11.4694 57.4466 11.3551 57.3651 11.267C57.2835 11.1789 57.2218 11.1055 57.18 11.0467L56.3455 11.8836L56.4397 12.0031C56.4982 12.0786 56.5934 12.1699 56.7251 12.2768C56.8569 12.3838 57.0106 12.4897 57.1862 12.5946C57.3619 12.6995 57.5867 12.7897 57.8607 12.8652C58.1347 12.9407 58.4222 12.9784 58.7234 12.9784C59.4093 12.9784 59.9666 12.7897 60.3953 12.4121C60.8241 12.0346 61.0384 11.5795 61.0384 11.0467C61.0384 10.7028 60.961 10.4091 60.8063 10.1658C60.6515 9.92254 60.456 9.74216 60.2197 9.62471C59.9834 9.50725 59.7303 9.40134 59.4605 9.30695C59.1908 9.21257 58.9387 9.13392 58.7045 9.071C58.4703 9.00808 58.2758 8.91579 58.121 8.79415C57.9663 8.6725 57.8889 8.52149 57.8889 8.34111C57.8889 8.16913 57.9694 8.01917 58.1305 7.89123C58.2915 7.7633 58.51 7.69932 58.7861 7.69932C58.991 7.69932 59.1949 7.74652 59.3978 7.8409C59.6006 7.93528 59.7345 8.01288 59.7993 8.07371C59.8641 8.13453 59.9133 8.18172 59.9467 8.21528Z" fill="#161616"/>
<path fill-rule="evenodd" clip-rule="evenodd" d="M85.0084 4.51901V5.8089C85.0084 6.32485 84.7951 6.58283 84.3684 6.58283H83.7222V7.74057H84.8829V10.9621C84.8787 12.2499 85.4769 12.8938 86.6773 12.8938C87.0245 12.8938 87.3257 12.8519 87.5808 12.768V11.6102L87.4867 11.6354C87.4281 11.6606 87.3455 11.6836 87.2389 11.7046C87.1322 11.7256 87.0308 11.7361 86.9346 11.7361C86.7129 11.7361 86.5288 11.6627 86.3825 11.5158C86.2361 11.369 86.1629 11.1803 86.1629 10.9496V7.74057H87.4491V6.58283H86.1629V4.51901H85.0084ZM74.0589 12.768L75.345 12.768V8.77249C75.345 8.11811 75.1045 7.56755 74.6235 7.1208C74.1425 6.67406 73.5256 6.45069 72.7727 6.45069C72.4716 6.45069 72.1798 6.49159 71.8975 6.57339C71.6152 6.65519 71.3883 6.74852 71.2168 6.85339C71.0453 6.95826 70.8832 7.07676 70.7306 7.20889C70.5779 7.34103 70.4796 7.43332 70.4357 7.48575C70.3918 7.53818 70.3573 7.58118 70.3322 7.61473L71.1666 8.45159L71.336 8.23136C71.4364 8.09293 71.6194 7.95556 71.885 7.81923C72.1506 7.68289 72.4465 7.61473 72.7727 7.61473C73.1492 7.61473 73.4576 7.72589 73.6981 7.94821C73.9386 8.17053 74.0589 8.44529 74.0589 8.77248L71.8065 9.1626C71.2503 9.25488 70.8121 9.47301 70.4922 9.81698C70.1722 10.161 70.0122 10.5867 70.0122 11.0943C70.0122 11.5641 70.2192 11.9815 70.6333 12.3464C71.0474 12.7114 71.5681 12.8938 72.1955 12.8938C72.4088 12.8938 72.6201 12.8666 72.8292 12.812C73.0383 12.7575 73.2119 12.6956 73.3499 12.6264C73.488 12.5572 73.6166 12.4796 73.7358 12.3936C73.855 12.3076 73.9345 12.2458 73.9742 12.208C74.0139 12.1702 74.0422 12.143 74.0589 12.1262V12.768ZM64.5971 7.4134C63.9593 8.05519 63.6403 8.80918 63.6403 9.6754C63.6403 10.5416 63.9592 11.2946 64.5971 11.9343C65.235 12.574 65.9868 12.8938 66.8526 12.8938C67.1495 12.8938 67.4444 12.8466 67.7372 12.7522C68.03 12.6579 68.2684 12.5551 68.4524 12.4439C68.6365 12.3328 68.8121 12.2048 68.9795 12.0601C69.1468 11.9154 69.2555 11.8126 69.3057 11.7518C69.3559 11.691 69.3935 11.6438 69.4186 11.6102L68.5842 10.7734L68.3897 11.0125C68.2642 11.1677 68.0582 11.3271 67.7717 11.4907C67.4852 11.6543 67.1788 11.7361 66.8526 11.7361C66.3298 11.7361 65.877 11.5368 65.4943 11.1383C65.1116 10.7398 64.9202 10.2522 64.9202 9.6754C64.9202 9.09862 65.1116 8.61098 65.4943 8.21248C65.877 7.81399 66.3298 7.61473 66.8526 7.61473C67.1788 7.61473 67.4852 7.69863 67.7717 7.86642C68.0582 8.03421 68.2444 8.1674 68.3301 8.26597C68.4159 8.36455 68.4796 8.4474 68.5215 8.51452L69.3559 7.67767L69.0861 7.38194C68.9063 7.17639 68.6093 6.9698 68.1952 6.76216C67.7811 6.55452 67.3336 6.4507 66.8526 6.4507C65.9868 6.4507 65.235 6.7716 64.5971 7.4134ZM72.3901 11.7361C72.9129 11.7361 73.3218 11.5798 73.6166 11.2673C73.9115 10.9548 74.059 10.5091 74.059 9.93025V9.80441L72.0638 10.1253C71.8338 10.1673 71.6477 10.2616 71.5054 10.4084C71.3632 10.5553 71.2921 10.7398 71.2921 10.9621C71.2921 11.1677 71.3915 11.3481 71.5901 11.5033C71.7888 11.6585 72.0555 11.7361 72.3901 11.7361ZM79.4395 12.812C79.657 12.8666 79.8807 12.8938 80.1108 12.8938C80.9264 12.8938 81.6343 12.5803 82.2345 11.9532C82.8348 11.326 83.1349 10.5657 83.1349 9.67226C83.1349 8.77878 82.8348 8.01848 82.2345 7.39136C81.6343 6.76425 80.9264 6.45069 80.1108 6.45069C79.7511 6.45069 79.3976 6.52829 79.0505 6.6835C78.7033 6.83871 78.4764 6.96455 78.3697 7.06103C78.2631 7.15751 78.1804 7.23511 78.1219 7.29383V6.58282H76.8357V15.4736H78.1219V12.057L78.2097 12.1513C78.2641 12.2017 78.3509 12.2698 78.4701 12.3558C78.5893 12.4418 78.7263 12.5257 78.8811 12.6075C79.0358 12.6893 79.2219 12.7575 79.4395 12.812ZM79.9854 7.61474C79.496 7.61474 79.0631 7.81608 78.6867 8.21878C78.3102 8.62148 78.122 9.10702 78.122 9.67541C78.122 10.2438 78.3102 10.7293 78.6867 11.132C79.0631 11.5347 79.496 11.7361 79.9854 11.7361C80.4748 11.7361 80.9077 11.5347 81.2841 11.132C81.6606 10.7293 81.8488 10.2438 81.8488 9.67541C81.8488 9.10702 81.6606 8.62148 81.2841 8.21878C80.9077 7.81608 80.4748 7.61474 79.9854 7.61474ZM93.181 12.768L93.181 12.1262L93.0994 12.208C93.0618 12.2457 92.9833 12.3076 92.8641 12.3936C92.7449 12.4796 92.6163 12.5572 92.4783 12.6264C92.3403 12.6956 92.1667 12.7575 91.9575 12.812C91.7484 12.8666 91.5351 12.8938 91.3176 12.8938C90.5731 12.8938 89.9697 12.6495 89.5075 12.1608C89.0453 11.6721 88.8142 11.0146 88.8142 10.1882V6.58282H90.1004V10.1882C90.1004 10.6329 90.2416 11.002 90.5239 11.2956C90.8062 11.5893 91.1565 11.7361 91.5748 11.7361C92.0642 11.7361 92.4542 11.5777 92.7449 11.261C93.0356 10.9443 93.181 10.5007 93.181 9.93023V6.58283L94.4672 6.58282V12.768H93.181ZM98.9192 7.61473C99.1325 7.61473 99.3249 7.63571 99.4964 7.67766V6.45069H99.1764C98.9631 6.45069 98.7508 6.47901 98.5396 6.53564C98.3284 6.59227 98.1548 6.65519 98.0188 6.7244C97.8829 6.79361 97.7543 6.87121 97.633 6.95721C97.5117 7.0432 97.4322 7.10507 97.3946 7.14283L97.313 7.22462V6.58283H96.0268V12.768H97.313V9.42057C97.313 8.85009 97.4583 8.40649 97.7491 8.08979C98.0397 7.77309 98.4298 7.61473 98.9192 7.61473ZM105.931 10.1253L101.113 10.1253C101.179 10.5615 101.394 10.9391 101.756 11.2579C102.117 11.5767 102.547 11.7361 103.045 11.7361C103.405 11.7361 103.74 11.6543 104.052 11.4907C104.364 11.3271 104.584 11.1677 104.714 11.0125L104.908 10.7734L105.743 11.6102C105.718 11.6438 105.679 11.691 105.627 11.7518C105.574 11.8126 105.463 11.9154 105.291 12.0601C105.12 12.2048 104.938 12.3328 104.745 12.4439C104.553 12.5551 104.303 12.6579 103.996 12.7522C103.688 12.8466 103.371 12.8938 103.045 12.8938C102.171 12.8938 101.417 12.5719 100.783 11.928C100.149 11.2841 99.8326 10.5112 99.8326 9.60934C99.8326 8.74102 100.141 7.9975 100.758 7.37878C101.375 6.76006 102.115 6.45069 102.979 6.45069C103.843 6.45069 104.562 6.73908 105.137 7.31586C105.713 7.89264 106 8.61518 106 9.48349L105.931 10.1253ZM101.806 7.96393C102.122 7.68918 102.512 7.5518 102.976 7.5518C103.449 7.5518 103.842 7.68918 104.156 7.96393C104.469 8.23869 104.664 8.59419 104.739 9.03044H101.169C101.278 8.59419 101.49 8.23869 101.806 7.96393Z" fill="#00A1B7"/>
</svg>
