<svg width="16" height="16" viewBox="0 0 16 16" fill="none" xmlns="http://www.w3.org/2000/svg">
    <path fill-rule="evenodd" clip-rule="evenodd"
          d="M8 0C12.4183 0 16 3.58172 16 8C16 10.1958 15.1153 12.185 13.683 13.6306L13.9226 14.6312C14.0345 14.9211 14.2898 15.0988 14.5561 15.0737C14.899 15.0414 15.1195 14.8044 15.1195 14.4689C15.1195 14.3068 15.0604 14.1629 14.9391 14.0351C14.8341 13.9243 14.6762 13.8619 14.4968 13.8619C14.2782 13.8619 14.101 13.6842 14.101 13.465C14.101 13.2459 14.2782 13.0682 14.4968 13.0682C14.8852 13.0682 15.2522 13.2132 15.5129 13.4882C15.7721 13.7615 15.9111 14.1001 15.9111 14.4689C15.9111 15.2181 15.3757 15.7938 14.6301 15.8639C13.9804 15.9251 13.3958 15.5082 13.1709 14.8815L13.1635 14.861L12.0675 10.2853L11.8886 9.62904C11.831 9.41766 11.613 9.29299 11.4016 9.3506C11.1902 9.4082 11.0655 9.62625 11.1231 9.83763L12.0203 13.1301C11.9009 13.0879 11.7899 13.0666 11.6847 13.0666C11.2955 13.0666 10.9277 13.2115 10.6664 13.4864C10.4067 13.7596 10.2673 14.0981 10.2673 14.4667C10.2673 14.8957 10.4434 15.2678 10.7343 15.5206C9.88115 15.8308 8.96034 16 8 16C3.58172 16 0 12.4183 0 8C0 3.58172 3.58172 0 8 0ZM11.6805 13.7352C12.1178 13.7352 12.4722 14.0935 12.4722 14.5356C12.4722 14.9776 12.1178 15.3359 11.6805 15.3359C11.2433 15.3359 10.8889 14.9776 10.8889 14.5356C10.8889 14.0935 11.2433 13.7352 11.6805 13.7352ZM13.5949 9.63101L13.1363 11.3487L13.5247 12.9699L14.3614 9.83566C14.418 9.62398 14.2922 9.40657 14.0805 9.35006C13.8688 9.29355 13.6514 9.41934 13.5949 9.63101ZM8.78241 3.00479C8.38005 3.18732 8.20184 3.66147 8.38436 4.06383C8.74923 4.86814 9.02277 5.98013 9.1953 7.39349C9.34729 8.63853 9.37928 9.64555 9.2651 10.3586C9.2085 10.7121 9.11925 10.9634 9.01721 11.0999C8.98693 11.1404 8.96118 11.1657 8.93015 11.1808C8.9275 11.1776 8.92476 11.1743 8.92196 11.1709C8.81276 11.0367 8.68211 10.8073 8.53906 10.4915L8.52412 10.4583C8.28088 9.91612 8.07714 9.33492 7.63508 7.98058L7.63125 7.96885C7.14145 6.46825 6.91857 5.83925 6.62018 5.20249C6.41184 4.75789 6.20364 4.4151 5.96917 4.1618C5.61061 3.77442 5.16286 3.5728 4.6582 3.68847C4.12378 3.81095 3.74605 4.20319 3.51913 4.76742C3.34266 5.20623 3.24518 5.77387 3.21243 6.48357C3.15154 7.80336 3.31498 9.67767 3.69909 12.1241C3.76762 12.5606 4.17702 12.8589 4.6135 12.7903C5.04998 12.7218 5.34826 12.3124 5.27973 11.8759C4.9109 9.52683 4.75579 7.7481 4.81073 6.55731C4.83222 6.09172 4.88564 5.73067 4.96214 5.48238C5.02685 5.58975 5.09727 5.7233 5.17136 5.88141C5.43067 6.43478 5.64343 7.0352 6.11023 8.46532L6.11406 8.47705C6.58551 9.92143 6.79774 10.5248 7.08156 11.1515C7.27653 11.582 7.46981 11.9214 7.68112 12.181C7.99248 12.5634 8.36275 12.8 8.82074 12.8C9.42984 12.8 9.94274 12.534 10.2987 12.0579C10.579 11.683 10.7509 11.1989 10.845 10.6116C10.9883 9.7168 10.9522 8.58129 10.7835 7.19961C10.5928 5.63752 10.282 4.37404 9.84145 3.40284C9.65892 3.00048 9.18477 2.82226 8.78241 3.00479Z"
          fill="#5A5A5A"/>
</svg>
