<?xml version="1.0" encoding="UTF-8"?>
<svg width="24px" height="24px" viewBox="0 0 40 40" version="1.1" xmlns="http://www.w3.org/2000/svg" xmlns:xlink="http://www.w3.org/1999/xlink">
    <!-- Generator: Sketch 56.3 (81716) - https://sketch.com -->
    <title>icon github</title>
    <desc>Created with Sketch.</desc>
    <g id="billing-page" stroke="none" stroke-width="1" fill="none" fill-rule="evenodd">
        <g id="icon-github" fill="#586068">
            <g id="ic-nimbus-logo">
                <g id="Combined-Shape">
                    <path d="M36.9563955,2.9964645 L31.4133174,2.9964645 C30.6034845,2.9964645 29.964645,2.32568307 29.964645,1.54363323 C29.964645,0.670781427 30.6034845,1.27897692e-13 31.4133174,1.27897692e-13 L38.5041876,1.27897692e-13 C38.8362746,1.27897692e-13 39.139608,0.112796041 39.3819272,0.306067892 C39.7296547,0.567368657 39.95286,0.972303304 39.95286,1.42688786 L39.95286,8.56132715 C39.95286,9.34937555 39.2820786,9.988215 38.4546278,9.988215 C37.6271769,9.988215 36.9563955,9.34937555 36.9563955,8.56132715 L36.9563955,2.9964645 Z M2.9964645,2.9964645 L2.9964645,8.56132715 C2.9964645,9.34937555 2.32568307,9.988215 1.49823225,9.988215 C0.670781427,9.988215 1.26121336e-13,9.34937555 1.26121336e-13,8.56132715 L1.26121336e-13,1.42688786 C1.26121336e-13,0.972303304 0.223205345,0.567368657 0.570932862,0.306067892 C0.813252046,0.112796041 1.11658542,1.27897692e-13 1.44867241,1.27897692e-13 L8.5395426,1.27897692e-13 C9.34937555,1.27897692e-13 9.988215,0.670781427 9.988215,1.54363323 C9.988215,2.32568307 9.34937555,2.9964645 8.5395426,2.9964645 L2.9964645,2.9964645 Z M2.9964645,36.9563955 L8.5395426,36.9563955 C9.34937555,36.9563955 9.988215,37.6271769 9.988215,38.4092268 C9.988215,39.2820786 9.34937555,39.95286 8.5395426,39.95286 L1.44867241,39.95286 C1.11658542,39.95286 0.813252046,39.840064 0.570932862,39.6467921 C0.223205345,39.3854914 1.26121336e-13,38.9805567 1.26121336e-13,38.5259722 L1.26121336e-13,31.3915329 C1.26121336e-13,30.6034845 0.670781427,29.964645 1.49823225,29.964645 C2.32568307,29.964645 2.9964645,30.6034845 2.9964645,31.3915329 L2.9964645,36.9563955 Z M2.9964645,16.4092104 L2.9964645,23.5436497 C2.9964645,24.3316981 2.32568307,24.9705375 1.49823225,24.9705375 C0.670781427,24.9705375 3.37507799e-14,24.3316981 3.37507799e-14,23.5436497 L3.37507799e-14,16.4092104 C3.37507799e-14,15.621162 0.670781427,14.9823225 1.49823225,14.9823225 C2.32568307,14.9823225 2.9964645,15.621162 2.9964645,16.4092104 Z M39.95286,16.4092104 L39.95286,23.5436497 C39.95286,24.3316981 39.2820786,24.9705375 38.4546278,24.9705375 C37.6271769,24.9705375 36.9563955,24.3316981 36.9563955,23.5436497 L36.9563955,16.4092104 C36.9563955,15.621162 37.6271769,14.9823225 38.4546278,14.9823225 C39.2820786,14.9823225 39.95286,15.621162 39.95286,16.4092104 Z M23.4723053,39.95286 L15.4817333,39.95286 C14.6542824,39.95286 13.983501,39.2820786 13.983501,38.4546278 C13.983501,37.6271769 14.6542824,36.9563955 15.4817333,36.9563955 L23.4723053,36.9563955 C24.2997561,36.9563955 24.9705375,37.6271769 24.9705375,38.4546278 C24.9705375,39.2820786 24.2997561,39.95286 23.4723053,39.95286 Z M23.4723053,2.9964645 L15.4817333,2.9964645 C14.6542824,2.9964645 13.983501,2.32568307 13.983501,1.49823225 C13.983501,0.670781427 14.6542824,3.37507799e-14 15.4817333,3.37507799e-14 L23.4723053,3.37507799e-14 C24.2997561,3.37507799e-14 24.9705375,0.670781427 24.9705375,1.49823225 C24.9705375,2.32568307 24.2997561,2.9964645 23.4723053,2.9964645 Z M14.6889895,14.9154159 C14.6047535,15.3716448 14.5434214,15.9331904 14.5118,16.5942186 C14.3836857,19.2723782 14.7477353,23.2990515 15.6146737,28.6246997 C15.8075003,29.8092435 15.0035546,30.9258228 13.8190108,31.1186494 C12.634467,31.3114759 11.5178877,30.5075303 11.3250611,29.3229865 C10.4135624,23.7236017 10.0251964,19.4279704 10.1706877,16.386554 C10.2501004,14.7264765 10.488154,13.3893937 10.9255397,12.3404277 C11.5006826,10.9610838 12.4676211,9.99262739 13.8216268,9.69330429 C15.1008149,9.41052074 16.2386954,9.9047274 17.1461995,10.8503667 C17.7289472,11.4576027 18.2391082,12.2677253 18.7462647,13.311601 C19.4609692,14.7826708 19.9901208,16.2230038 21.1529364,19.6590921 L21.161979,19.6858128 C22.2221936,22.8187295 22.6990436,24.1263591 23.2808366,25.3654271 C23.5421391,25.9219335 23.7828933,26.3520901 23.9892663,26.6441182 C24.1772526,26.3765982 24.3542672,25.8770409 24.4721771,25.1667897 C24.7338069,23.590816 24.6593687,21.3312404 24.3050037,18.5313701 C23.9023891,15.3502752 23.2663572,12.8563707 22.4241542,11.0656996 C21.9133711,9.97968537 22.3796881,8.68522546 23.4657023,8.17444243 C24.5517165,7.66365941 25.8461764,8.1299764 26.3569594,9.21599059 C27.4172034,11.4702551 28.1613629,14.3881317 28.6166837,17.9856632 C29.0196985,21.1699198 29.1060602,23.791433 28.7595751,25.8785473 C28.5276863,27.2753706 28.0998767,28.4369663 27.3954198,29.3457891 C26.4980832,30.5034465 25.2117425,31.1468813 23.7004612,31.1468813 C22.5394066,31.1468813 21.5983319,30.5669901 20.813493,29.6370892 C20.2913912,29.0184871 19.8198193,28.2199239 19.3468393,27.2125995 C18.6678139,25.7664519 18.1640485,24.3850139 17.0452432,21.078963 L17.0362022,21.0522468 C15.9395211,17.8115841 15.4397002,16.4510884 14.8371265,15.2108164 C14.7868325,15.1072966 14.7374007,15.0087931 14.6889895,14.9154159 Z M31.962288,35.957574 L30.0484858,35.957574 C28.898914,35.957574 27.967002,35.0631988 27.967002,33.959931 C27.967002,32.8566632 28.898914,31.962288 30.0484858,31.962288 L31.962288,31.962288 L31.962288,30.0484858 C31.962288,28.898914 32.8566632,27.967002 33.959931,27.967002 C35.0631988,27.967002 35.957574,28.898914 35.957574,30.0484858 L35.957574,31.962288 L37.8713763,31.962288 C39.020948,31.962288 39.95286,32.8566632 39.95286,33.959931 C39.95286,35.0631988 39.020948,35.957574 37.8713763,35.957574 L35.957574,35.957574 L35.957574,37.8713763 C35.957574,39.020948 35.0631988,39.95286 33.959931,39.95286 C32.8566632,39.95286 31.962288,39.020948 31.962288,37.8713763 L31.962288,35.957574 Z"></path>
                </g>
            </g>
        </g>
    </g>
</svg>