<svg width="16" height="16" viewBox="0 0 16 16" fill="none" xmlns="http://www.w3.org/2000/svg">
<path d="M6.25947 3.94745C6.53601 3.83061 6.76231 3.65498 6.94185 3.49524C7.05703 3.39277 7.18245 3.26853 7.28965 3.16234C7.338 3.11445 7.38267 3.0702 7.421 3.03331C7.72949 2.73631 7.87729 2.66668 8.00001 2.66668C8.0978 2.66668 8.24786 2.73425 8.57843 3.04738C8.61757 3.08445 8.66187 3.12746 8.70932 3.17352C8.82088 3.28181 8.94987 3.40703 9.06973 3.51146C9.2491 3.66772 9.47753 3.84237 9.75241 3.95233C10.0255 4.06157 10.3025 4.09247 10.5329 4.10251C10.6776 4.10881 10.8472 4.10706 10.9902 4.10558C11.0562 4.1049 11.1166 4.10427 11.1663 4.10453C11.5673 4.10658 11.7013 4.15846 11.7794 4.23694C11.834 4.29175 11.883 4.39977 11.8816 4.81599C11.8814 4.858 11.8808 4.9053 11.8801 4.95615C11.8779 5.10836 11.8754 5.29251 11.8846 5.46194C11.8976 5.70017 11.935 5.98109 12.0526 6.25947C12.1694 6.53601 12.345 6.76231 12.5048 6.94185C12.6073 7.05703 12.7315 7.18245 12.8377 7.28966C12.8856 7.33802 12.9298 7.38267 12.9667 7.421C13.2637 7.72949 13.3333 7.87729 13.3333 8.00001C13.3333 8.12273 13.2637 8.27053 12.9667 8.57902C12.9298 8.61733 12.8856 8.66196 12.8378 8.71029C12.7316 8.81749 12.6073 8.94299 12.5048 9.05817C12.345 9.23771 12.1694 9.46401 12.0526 9.74055C11.935 10.0189 11.8978 10.2997 11.8851 10.5377C11.876 10.7073 11.8788 10.8914 11.8811 11.0436C11.8819 11.0942 11.8826 11.1413 11.8828 11.1831C11.8848 11.5992 11.8358 11.7063 11.7821 11.7604C11.7052 11.8377 11.5916 11.884 11.2023 11.8828C11.1592 11.8827 11.1108 11.8816 11.0578 11.8805C10.7255 11.8733 10.2157 11.8624 9.75241 12.0477C9.47753 12.1577 9.2491 12.3323 9.06973 12.4886C8.94988 12.593 8.82099 12.7181 8.70944 12.8264C8.662 12.8724 8.61756 12.9156 8.57843 12.9526C8.24786 13.2658 8.0978 13.3333 8.00001 13.3333C7.87729 13.3333 7.72949 13.2637 7.421 12.9667C7.38267 12.9298 7.33802 12.8856 7.28966 12.8377C7.18245 12.7315 7.05703 12.6073 6.94185 12.5048C6.76231 12.345 6.53601 12.1694 6.25947 12.0526C5.98059 11.9347 5.69911 11.8958 5.45952 11.8812C5.29112 11.871 5.10754 11.872 4.95507 11.8728C4.90213 11.873 4.8529 11.8733 4.8094 11.8731C4.39208 11.8708 4.2779 11.8207 4.21793 11.7604C4.16417 11.7063 4.11524 11.5992 4.11725 11.1831C4.11746 11.1413 4.11817 11.0942 4.11893 11.0436C4.12122 10.8914 4.12399 10.7073 4.11492 10.5377C4.10218 10.2997 4.06504 10.0189 3.94745 9.74055C3.83061 9.46401 3.65498 9.23771 3.49524 9.05817C3.39277 8.943 3.26854 8.81758 3.16235 8.71037C3.11445 8.66202 3.07021 8.61735 3.03331 8.57902C2.73631 8.27053 2.66668 8.12273 2.66668 8.00001C2.66668 7.87729 2.73631 7.72949 3.03331 7.421C3.0702 7.38267 3.11442 7.33803 3.16231 7.28968C3.2685 7.18248 3.39277 7.05703 3.49524 6.94185C3.65498 6.76231 3.83061 6.53601 3.94745 6.25947C4.06504 5.98115 4.10218 5.70031 4.11492 5.46228C4.12399 5.29272 4.12122 5.10862 4.11893 4.95646C4.11817 4.90586 4.11746 4.85875 4.11725 4.81692C4.11524 4.40085 4.16417 4.29371 4.21793 4.23965C4.2779 4.17934 4.39208 4.1292 4.8094 4.12695C4.8529 4.12671 4.90209 4.12697 4.95503 4.12726C5.10751 4.12807 5.29111 4.12905 5.45952 4.11879C5.69911 4.1042 5.98059 4.06528 6.25947 3.94745ZM8.00001 1.33334C7.29512 1.33334 6.80155 1.77885 6.49626 2.07276C6.42655 2.13988 6.36726 2.19879 6.31255 2.25316C6.22318 2.34196 6.14603 2.41863 6.05559 2.49909C5.92221 2.61776 5.82264 2.68456 5.74055 2.71924C5.6574 2.75437 5.54425 2.77783 5.37848 2.78792C5.25683 2.79533 5.143 2.7947 5.00805 2.79395C4.94503 2.7936 4.87738 2.79323 4.80219 2.79363C4.4096 2.79575 3.7584 2.81078 3.27243 3.29954C2.78837 3.78637 2.78207 4.43779 2.78394 4.82338C2.78429 4.89541 2.78527 4.96045 2.78618 5.02108C2.78823 5.15673 2.78995 5.27035 2.78349 5.39102C2.77479 5.55354 2.75234 5.66221 2.71924 5.74055C2.68456 5.82264 2.61776 5.92221 2.49909 6.05559C2.41863 6.14603 2.34196 6.22318 2.25316 6.31255C2.1988 6.36725 2.13987 6.42656 2.07276 6.49626C1.77885 6.80155 1.33334 7.29512 1.33334 8.00001C1.33334 8.7049 1.77885 9.19847 2.07276 9.50376C2.13988 9.57347 2.19879 9.63276 2.25315 9.68747C2.34195 9.77683 2.41863 9.854 2.49909 9.94443C2.61776 10.0778 2.68456 10.1774 2.71924 10.2595C2.75234 10.3378 2.77479 10.4465 2.78349 10.609C2.78995 10.7297 2.78823 10.8433 2.78618 10.9789C2.78527 11.0396 2.78429 11.1046 2.78394 11.1766C2.78207 11.5622 2.78837 12.2136 3.27243 12.7005C3.7584 13.1892 4.4096 13.2043 4.80219 13.2064C4.87738 13.2068 4.94501 13.2064 5.00804 13.2061C5.14299 13.2053 5.25682 13.2047 5.37848 13.2121C5.54425 13.2222 5.6574 13.2457 5.74055 13.2808C5.82264 13.3155 5.92221 13.3823 6.05559 13.5009C6.14603 13.5814 6.22318 13.6581 6.31255 13.7469C6.36726 13.8012 6.42656 13.8602 6.49626 13.9273C6.80155 14.2212 7.29512 14.6667 8.00001 14.6667C8.68922 14.6667 9.19484 14.2053 9.49536 13.9206C9.56174 13.8578 9.6198 13.8013 9.67372 13.7489C9.76955 13.6556 9.85235 13.5751 9.94559 13.4939C10.0828 13.3743 10.1782 13.3134 10.2476 13.2857C10.4398 13.2088 10.6405 13.2109 10.9827 13.2145C11.0489 13.2151 11.1204 13.2159 11.1981 13.2161C11.6014 13.2174 12.232 13.1989 12.7276 12.7005C13.2116 12.2136 13.2179 11.5622 13.2161 11.1766C13.2157 11.1047 13.2148 11.0397 13.2138 10.9792C13.2118 10.8435 13.2101 10.7297 13.2165 10.609C13.2252 10.4465 13.2477 10.3378 13.2808 10.2595C13.3155 10.1774 13.3823 10.0778 13.5009 9.94443C13.5814 9.85399 13.6581 9.77684 13.7469 9.68747C13.8012 9.63277 13.8602 9.57346 13.9273 9.50376C14.2212 9.19847 14.6667 8.7049 14.6667 8.00001C14.6667 7.29512 14.2212 6.80155 13.9273 6.49626C13.8602 6.42656 13.8013 6.36728 13.7469 6.31258C13.6581 6.22321 13.5814 6.14603 13.5009 6.05559C13.3823 5.92221 13.3155 5.82264 13.2808 5.74055C13.2474 5.66161 13.2249 5.55238 13.216 5.38945C13.2094 5.26866 13.211 5.15502 13.2129 5.01945C13.2137 4.95858 13.2146 4.89309 13.2149 4.82074C13.2163 4.43427 13.2089 3.78289 12.7242 3.29616C12.2305 2.80031 11.5829 2.77331 11.1731 2.77121C11.0755 2.77071 10.9934 2.77174 10.9184 2.77267C10.8027 2.77412 10.7038 2.77536 10.591 2.77044C10.424 2.76317 10.3188 2.74285 10.2476 2.71436C10.1782 2.68659 10.0828 2.6257 9.94559 2.50615C9.85235 2.42491 9.76957 2.3444 9.67373 2.25118C9.61981 2.19874 9.56175 2.14227 9.49536 2.07938C9.19484 1.79471 8.68922 1.33334 8.00001 1.33334ZM9.33334 8.00001C9.33334 7.26363 8.73639 6.66668 8.00001 6.66668C7.26363 6.66668 6.66668 7.26363 6.66668 8.00001C6.66668 8.73639 7.26363 9.33334 8.00001 9.33334C8.73639 9.33334 9.33334 8.73639 9.33334 8.00001ZM10.6667 8.00001C10.6667 9.47277 9.47277 10.6667 8.00001 10.6667C6.52725 10.6667 5.33334 9.47277 5.33334 8.00001C5.33334 6.52725 6.52725 5.33334 8.00001 5.33334C9.47277 5.33334 10.6667 6.52725 10.6667 8.00001Z" fill="black" fill-opacity="0.6"/>
</svg>
