<svg width="24" height="24" viewBox="0 0 24 24" fill="none" xmlns="http://www.w3.org/2000/svg">
<path fill-rule="evenodd" clip-rule="evenodd" d="M17.1464 10.3536C17.3417 10.5488 17.6583 10.5488 17.8536 10.3536C18.0488 10.1583 18.0488 9.84171 17.8536 9.64645L12.3541 4.14703L12.3536 4.14645C12.3291 4.12204 12.3028 4.10068 12.2751 4.08238C12.081 3.95424 11.8173 3.97559 11.6464 4.14645L6.14645 9.64645C5.95118 9.84171 5.95118 10.1583 6.14645 10.3536C6.34171 10.5488 6.65829 10.5488 6.85355 10.3536L11.5 5.70711L11.5 17C11.5 17.2761 11.7239 17.5 12 17.5C12.2762 17.5 12.5 17.2761 12.5 17L12.5 5.70711L17.1464 10.3536ZM6.5 20C6.5 19.7239 6.72386 19.5 7 19.5L17 19.5C17.2761 19.5 17.5 19.7239 17.5 20C17.5 20.2761 17.2761 20.5 17 20.5L7 20.5C6.72386 20.5 6.5 20.2761 6.5 20Z" fill="#5C6061"/>
</svg>
