<svg width="24" height="24" viewBox="0 0 24 24" fill="none" xmlns="http://www.w3.org/2000/svg">
<path d="M10.5832 3.83037C11.0501 2.48703 12.9499 2.48702 13.4168 3.83037L15.0672 8.57832L20.0928 8.68073C21.5147 8.70971 22.1018 10.5165 20.9685 11.3757L16.9629 14.4125L18.4185 19.2238C18.8303 20.585 17.2933 21.7017 16.126 20.8894L12 18.0183L7.87403 20.8894C6.70668 21.7017 5.1697 20.585 5.58153 19.2238L7.03711 14.4125L3.03154 11.3757C1.89825 10.5165 2.48531 8.70971 3.9072 8.68073L8.93277 8.57832L10.5832 3.83037ZM12 5.84572L10.7077 9.56362C10.5017 10.1562 9.94863 10.558 9.32137 10.5708L5.38608 10.651L8.52266 13.029C9.02261 13.408 9.23385 14.0582 9.05218 14.6587L7.91237 18.4261L11.1432 16.1779C11.6582 15.8196 12.3418 15.8196 12.8568 16.1779L16.0876 18.4261L14.9478 14.6587C14.7661 14.0582 14.9774 13.408 15.4773 13.029L18.6139 10.651L14.6786 10.5708C14.0514 10.558 13.4983 10.1562 13.2923 9.56362L12 5.84572Z" fill="black" fill-opacity="0.54"/>
</svg>
