<svg width="24" height="24" viewBox="0 0 24 24" fill="none" xmlns="http://www.w3.org/2000/svg">
<path fill-rule="evenodd" clip-rule="evenodd" d="M12 24C18.6274 24 24 18.6274 24 12C24 5.37258 18.6274 0 12 0C5.37258 0 0 5.37258 0 12C0 18.6274 5.37258 24 12 24Z" fill="#00A1B7"/>
<path fill-rule="evenodd" clip-rule="evenodd" d="M9.15693 8.82226C9.54586 9.65229 9.86497 10.5529 10.5651 12.698L10.5708 12.7156C11.278 14.8821 11.5963 15.7872 12.022 16.7272C12.3144 17.3729 12.6043 17.8819 12.9212 18.2713C13.3882 18.845 13.9436 19.1998 14.6305 19.1998C15.5441 19.1998 16.3134 18.8008 16.8472 18.0867C17.2676 17.5244 17.5255 16.7982 17.6666 15.9173C17.8815 14.5752 17.8274 12.8719 17.5744 10.7995C17.2884 8.45643 16.8222 6.56127 16.1614 5.10452C15.8877 4.50099 15.1765 4.23369 14.573 4.50747C13.9695 4.78125 13.7022 5.49245 13.976 6.09597C14.5232 7.3024 14.9335 8.97034 15.1923 11.0903C15.4202 12.9578 15.4682 14.4683 15.297 15.5379C15.2121 16.0681 15.0782 16.445 14.9252 16.6497C14.8798 16.7105 14.8411 16.7485 14.7946 16.7711C14.7906 16.7663 14.7865 16.7613 14.7823 16.7562C14.6185 16.555 14.4226 16.2109 14.208 15.7371C13.8331 14.9092 13.5287 14.0438 12.8522 11.9709L12.8464 11.9533C12.1118 9.70249 11.7775 8.75903 11.33 7.80391C11.0175 7.13703 10.7052 6.62286 10.3535 6.24292C9.81574 5.66188 9.14417 5.35945 8.38725 5.53295C7.58569 5.71667 7.01915 6.30501 6.67881 7.15133C6.41412 7.80952 6.26792 8.66096 6.2188 9.72546C6.12747 11.7051 6.37261 14.5165 6.94872 18.186C7.05151 18.8407 7.66555 19.2881 8.32021 19.1853C8.97487 19.0825 9.42225 18.4684 9.31946 17.8137C8.76627 14.2902 8.53363 11.6222 8.61604 9.83608C8.64826 9.13771 8.72839 8.59616 8.84313 8.22374C8.94018 8.38478 9.0458 8.58509 9.15693 8.82226Z" fill="white"/>
</svg>
