<svg width="24" height="24" viewBox="0 0 24 24" fill="none" xmlns="http://www.w3.org/2000/svg">
<path fill-rule="evenodd" clip-rule="evenodd" d="M12 4.5C10.067 4.5 8.5 6.067 8.5 8C8.5 9.933 10.067 11.5 12 11.5C13.933 11.5 15.5 9.933 15.5 8C15.5 6.067 13.933 4.5 12 4.5ZM7.5 8C7.5 5.51472 9.51472 3.5 12 3.5C14.4853 3.5 16.5 5.51472 16.5 8C16.5 8.92833 16.2189 9.79101 15.7372 10.5076C15.8241 10.5025 15.9118 10.5 16 10.5C18.4853 10.5 20.5 12.5147 20.5 15C20.5 17.4853 18.4853 19.5 16 19.5C14.2585 19.5 12.7481 18.5108 12 17.0636C11.2519 18.5108 9.74147 19.5 8 19.5C5.51472 19.5 3.5 17.4853 3.5 15C3.5 12.5147 5.51472 10.5 8 10.5C8.08823 10.5 8.17586 10.5025 8.26284 10.5075C7.78111 9.79101 7.5 8.92833 7.5 8ZM11.7372 12.4925C11.8329 12.6349 11.9207 12.7831 12 12.9364C12.0793 12.7831 12.1671 12.6349 12.2628 12.4925C12.1759 12.4975 12.0882 12.5 12 12.5C11.9118 12.5 11.8241 12.4975 11.7372 12.4925ZM11.5 15C11.5 13.067 9.933 11.5 8 11.5C6.067 11.5 4.5 13.067 4.5 15C4.5 16.933 6.067 18.5 8 18.5C9.933 18.5 11.5 16.933 11.5 15ZM12.5 15C12.5 16.933 14.067 18.5 16 18.5C17.933 18.5 19.5 16.933 19.5 15C19.5 13.067 17.933 11.5 16 11.5C14.067 11.5 12.5 13.067 12.5 15Z" fill="#5C6061"/>
</svg>
