<svg width="48" height="48" viewBox="0 0 48 48" fill="none" xmlns="http://www.w3.org/2000/svg">
<path d="M26.1551 5.8884C17.3831 1.03204 12.6861 -1.23318 9.04642 0.674095C8.92184 0.739377 8.79905 0.807796 8.67818 0.879282C4.8 3.17293 4.8 9.04862 4.8 20.8C4.8 32.5514 4.8 38.4271 8.67818 40.7207C8.79905 40.7922 8.92184 40.8606 9.04642 40.9259C10.7965 41.8429 12.7909 41.7954 15.3652 40.959C14.5625 38.105 13.6722 34.2292 12.7558 28.9655L12.7519 28.9432L12.7485 28.9209C12.593 27.8906 11.8555 22.8178 11.6522 17.8618C11.5513 15.401 11.5761 12.8525 11.9097 10.8123C12.075 9.80119 12.3359 8.78292 12.7782 7.93326C13.2175 7.08924 13.9905 6.13413 15.2804 5.83907C16.803 5.49078 17.9806 6.31188 18.6753 7.04536C19.3764 7.78558 19.953 8.79243 20.44 9.81347C21.4259 11.8804 22.347 14.6727 23.214 17.3224L23.3047 17.5997C24.1639 20.2261 24.9777 22.7141 25.8092 24.5756C26.2422 25.5448 26.6257 26.2168 26.946 26.6172C27.0207 26.7107 27.1531 26.7352 27.2369 26.6498C27.3021 26.5833 27.3741 26.4891 27.4553 26.3556C27.7761 25.8284 28.0518 24.9348 28.2194 23.6809C28.55 21.2086 28.3676 18.12 28.1441 15.8806C27.7392 11.8228 26.9768 8.38018 26.1551 5.8884Z" fill="#00A1B7"/>
<path d="M19.0918 39.4293C21.7578 38.1649 24.946 36.3884 28.8609 34.207C39.4057 28.3313 44.6782 25.3935 44.7972 21.0052C44.8009 20.8684 44.8009 20.7316 44.7972 20.5948C44.6866 16.5192 40.1308 13.6946 31.0344 8.60564C31.4927 10.6585 31.874 12.9747 32.1243 15.4834C32.3534 17.7793 32.5795 21.2539 32.1842 24.211C31.9889 25.6719 31.6181 27.2094 30.8724 28.4349C30.0736 29.7477 28.7543 30.8085 26.8663 30.8085C25.4188 30.8085 24.4114 29.8521 23.8225 29.1159C23.1848 28.3188 22.6373 27.2822 22.157 26.207C21.2377 24.1489 20.3657 21.4819 19.5374 18.9487L19.4124 18.5663C18.5212 15.8429 17.6814 13.3213 16.8297 11.5355C16.7963 11.4657 16.7634 11.3979 16.731 11.3322C16.512 10.889 15.937 10.9699 15.8572 11.4577C15.5902 13.0907 15.5511 15.315 15.6489 17.6979C15.8416 22.3952 16.5431 27.257 16.7004 28.3018C17.5518 33.1891 18.3692 36.7896 19.0918 39.4293Z" fill="#00A1B7"/>
<path fill-rule="evenodd" clip-rule="evenodd" d="M0 30H48V48H0V30Z" fill="#3F3F3F"/>
<path fill-rule="evenodd" clip-rule="evenodd" d="M14.6782 45.4322H11.3265L6.37092 37.6962V45.4322H3V33H6.37092L11.3169 40.7359V33H14.6782V45.4322ZM26.1849 40.1639H20.8836V43.1267H27.1452V45.4322H17.5127V33H27.1644V35.314H20.8836V37.9353H26.1849V40.1639ZM40.0541 40.7957L41.6579 33H45L42.0324 45.4322H38.5367L36.6639 38.3451L34.8296 45.4322H31.3434L28.3663 33H31.718L33.3218 40.7957L35.2426 33H38.1045L40.0541 40.7957Z" fill="white"/>
</svg>
