<svg width="498" height="397" viewBox="0 0 498 397" fill="none" xmlns="http://www.w3.org/2000/svg">
<g clip-path="url(#clip0)">
<rect x="0.371094" width="497.628" height="397" rx="27.5694" fill="#FAFAFA"/>
<path fill-rule="evenodd" clip-rule="evenodd" d="M369.804 284.137H150.199C146.766 284.137 143.983 281.354 143.983 277.922V124.612C143.983 121.18 146.766 118.397 150.199 118.397H369.804C373.236 118.397 376.019 121.18 376.019 124.612V277.922C376.019 281.354 373.236 284.137 369.804 284.137Z" fill="#4E5C93"/>
<path fill-rule="evenodd" clip-rule="evenodd" d="M154.331 274.198C153.186 274.198 152.259 273.27 152.259 272.126V130.684C152.259 129.54 153.186 128.612 154.331 128.612H365.634C366.778 128.612 367.705 129.54 367.705 130.684V272.126C367.705 273.27 366.778 274.198 365.634 274.198H154.331Z" fill="#CCD7EE"/>
<path fill-rule="evenodd" clip-rule="evenodd" d="M152.261 274.263V139.599H368.078V272.191C368.078 273.335 366.811 274.263 365.248 274.263H152.261Z" fill="white"/>
<path fill-rule="evenodd" clip-rule="evenodd" d="M163.717 243.199C162.573 243.199 161.646 242.271 161.646 241.127V156.98C161.646 155.836 162.573 154.909 163.717 154.909H291.262C292.406 154.909 293.334 155.836 293.334 156.98V241.127C293.334 242.271 292.406 243.199 291.262 243.199H163.717Z" fill="#00ACC1"/>
<path fill-rule="evenodd" clip-rule="evenodd" d="M170.614 167.081C169.914 167.081 169.347 166.514 169.347 165.814C169.347 165.115 169.914 164.547 170.614 164.547H179.656C180.356 164.547 180.923 165.115 180.923 165.814C180.923 166.514 180.356 167.081 179.656 167.081H170.614Z" fill="#253368"/>
<path fill-rule="evenodd" clip-rule="evenodd" d="M170.761 173.16C170.061 173.16 169.494 172.593 169.494 171.893C169.494 171.194 170.061 170.627 170.761 170.627H179.803C180.503 170.627 181.07 171.194 181.07 171.893C181.07 172.593 180.503 173.16 179.803 173.16H170.761Z" fill="#253368"/>
<path fill-rule="evenodd" clip-rule="evenodd" d="M161.646 219.883C175.351 219.883 171.712 202.516 192.468 202.516C213.225 202.516 212.144 218.041 228.333 218.041C244.774 218.041 243.686 173.451 259.437 173.451C276.063 173.451 272.31 213.856 293.02 213.856V241.238C293.02 242.383 292.091 243.311 290.946 243.31L163.715 243.201C162.572 243.2 161.646 242.272 161.646 241.129V219.883Z" fill="#253368"/>
<path d="M245.142 216.406L247.169 214.314C247.865 213.597 248.401 213.054 248.928 212.537C253.133 208.409 256.335 206.508 260.237 206.508C264.285 206.508 267.83 208.547 272.656 212.956L272.809 213.097C273.229 213.483 273.663 213.889 274.158 214.359L276.592 216.689C279.848 219.795 281.839 221.494 284.115 222.958C287.047 224.843 289.877 225.83 292.85 225.866L293.019 225.867V227.317C289.68 227.317 286.536 226.239 283.331 224.177L283.105 224.031C280.9 222.588 278.94 220.92 275.907 218.039L273.541 215.774L272.92 215.184C272.528 214.813 272.173 214.481 271.828 214.164L271.535 213.897C267.032 209.805 263.784 207.959 260.237 207.959C256.813 207.959 253.902 209.687 249.944 213.572L249.595 213.917C249.211 214.299 248.803 214.713 248.316 215.214L246.18 217.42L245.848 217.758C242.889 220.765 240.732 222.639 238.235 224.184C234.914 226.239 231.43 227.317 227.521 227.317C221.146 227.317 216.128 224.647 212.13 219.623C208.981 215.667 206.605 210.558 204.203 203.34L204.016 202.775C203.174 200.186 201.026 193.159 200.966 192.971L200.834 192.553C199.452 188.217 198.365 185.464 197.133 183.416C195.678 180.996 194.131 179.827 192.297 179.827C190.059 179.827 188.19 181.383 186.463 184.566L186.36 184.758C185.023 187.274 183.884 190.46 182.324 195.729L180.244 202.881L180.044 203.556C177.832 210.944 175.97 215.714 173.51 219.562C170.307 224.574 166.357 227.263 161.329 227.317L161.177 227.317V225.867C165.725 225.867 169.298 223.46 172.288 218.781C174.683 215.035 176.521 210.3 178.729 202.892L179.073 201.722C179.625 199.83 180.583 196.511 180.689 196.15L180.936 195.309C182.542 189.883 183.715 186.616 185.134 183.974L185.188 183.874C187.142 180.273 189.42 178.377 192.297 178.377C194.727 178.377 196.685 179.856 198.376 182.668L198.5 182.877C199.773 185.055 200.881 187.905 202.281 192.319L204.247 198.686C204.747 200.293 205.221 201.801 205.492 202.62C207.875 209.829 210.209 214.88 213.265 218.72C216.999 223.413 221.611 225.867 227.521 225.867C231.148 225.867 234.371 224.87 237.472 222.951C239.938 221.425 242.087 219.535 245.142 216.406Z" fill="white"/>
<path d="M290.78 254.63C291.26 254.63 291.65 255.019 291.65 255.5C291.65 255.964 291.286 256.344 290.827 256.369L290.78 256.37H163.032C162.552 256.37 162.162 255.98 162.162 255.5C162.162 255.035 162.526 254.656 162.985 254.631L163.032 254.63H290.78Z" fill="#597EF7"/>
<path d="M270.363 263.379C270.844 263.379 271.233 263.769 271.233 264.25C271.233 264.714 270.869 265.094 270.411 265.118L270.363 265.12H163.032C162.552 265.12 162.162 264.73 162.162 264.25C162.162 263.785 162.526 263.405 162.985 263.381L163.032 263.379H270.363Z" fill="#597EF7"/>
<path d="M339.268 250.182V242.9H327.112V250.182C314.27 254.811 312.832 258.113 312.832 258.113H353.55C353.55 258.113 352.112 254.811 339.268 250.182Z" fill="#A3B5D6"/>
<path d="M346.897 233.098C346.897 231.405 346.023 229.95 344.77 229.303C344.831 227.165 344.783 225.667 344.783 225.667C344.783 221.695 342.542 218.223 339.198 216.332V213.454C329.743 213.454 326.703 216.871 326.703 216.871C323.844 218.843 321.985 222.047 321.985 225.665C321.985 225.665 321.941 227.091 321.995 229.146C320.558 229.69 319.521 231.254 319.521 233.098C319.521 235.247 320.93 237.016 322.736 237.233C323.141 239.457 323.755 241.475 324.682 242.705C327.452 246.384 330.812 247.933 333.384 247.933C335.956 247.933 339.317 246.384 342.087 242.705C343.025 241.462 343.639 239.417 344.044 237.167C345.673 236.774 346.897 235.103 346.897 233.098Z" fill="#E4EBF7"/>
<path d="M327.4 225.039C327.537 225.039 327.647 225.149 327.647 225.286C327.647 225.418 327.543 225.526 327.412 225.532L327.4 225.533H321.719C321.582 225.533 321.472 225.422 321.472 225.286C321.472 225.153 321.576 225.045 321.707 225.039L321.719 225.039H327.4Z" fill="white"/>
<path d="M328.729 223.794C327.858 223.794 327.152 224.499 327.152 225.37C327.152 226.241 327.858 226.947 328.729 226.947C329.6 226.947 330.306 226.241 330.306 225.37C330.306 224.499 329.6 223.794 328.729 223.794ZM328.729 224.288C329.327 224.288 329.812 224.772 329.812 225.37C329.812 225.968 329.327 226.453 328.729 226.453C328.131 226.453 327.646 225.968 327.646 225.37C327.646 224.772 328.131 224.288 328.729 224.288Z" fill="white"/>
<path d="M343.67 239.061C343.806 239.061 343.917 239.172 343.917 239.308C343.917 239.441 343.812 239.549 343.681 239.555L343.67 239.555H337.987C337.851 239.555 337.74 239.445 337.74 239.308C337.74 239.176 337.845 239.067 337.976 239.061L337.987 239.061H343.67Z" fill="white"/>
<path d="M336.658 237.647C335.787 237.647 335.081 238.353 335.081 239.224C335.081 240.094 335.787 240.8 336.658 240.8C337.529 240.8 338.234 240.094 338.234 239.224C338.234 238.353 337.529 237.647 336.658 237.647ZM336.658 238.141C337.256 238.141 337.74 238.626 337.74 239.224C337.74 239.822 337.256 240.306 336.658 240.306C336.06 240.306 335.575 239.822 335.575 239.224C335.575 238.626 336.06 238.141 336.658 238.141Z" fill="white"/>
<path d="M308.934 253.842C309.523 253.842 310 254.319 310 254.907V260.234H315.26C315.848 260.234 316.325 260.711 316.325 261.299C316.325 261.888 315.848 262.365 315.26 262.365H310C308.823 262.365 307.869 261.411 307.869 260.234V254.907C307.869 254.319 308.346 253.842 308.934 253.842ZM351.615 262.365C351.026 262.365 350.549 261.888 350.549 261.299C350.549 260.711 351.026 260.234 351.615 260.234H356.875L356.875 254.907C356.875 254.319 357.352 253.842 357.94 253.842C358.528 253.842 359.005 254.319 359.005 254.907V260.234C359.005 261.411 358.051 262.365 356.875 262.365H351.615ZM315.26 211.266C315.848 211.266 316.325 211.743 316.325 212.331C316.325 212.92 315.848 213.396 315.26 213.396H310V218.723C310 219.312 309.523 219.789 308.934 219.789C308.346 219.789 307.869 219.312 307.869 218.723V213.396C307.869 212.232 308.804 211.285 309.965 211.266L310 211.266H315.26Z" fill="#597EF7"/>
<path d="M359.005 218.723C359.005 219.312 358.528 219.789 357.94 219.789C357.351 219.789 356.874 219.312 356.874 218.723V213.396H351.614C351.026 213.396 350.549 212.92 350.549 212.331C350.549 211.743 351.026 211.266 351.614 211.266H357.229C358.21 211.266 359.005 212.061 359.005 213.041V218.723Z" fill="#597EF7"/>
<path fill-rule="evenodd" clip-rule="evenodd" d="M231.658 310.093H286.841V284.137H231.658V310.093Z" fill="#CCD7EE"/>
<path fill-rule="evenodd" clip-rule="evenodd" d="M320.28 319.203H200.058C195.16 319.203 191.189 316.721 191.189 313.66C191.189 310.598 195.16 308.117 200.058 308.117H320.28C325.178 308.117 329.148 310.598 329.148 313.66C329.148 316.721 325.178 319.203 320.28 319.203Z" fill="#4E5C93"/>
<path d="M277.499 120.255C278.055 120.255 278.586 120.026 278.957 119.626C279.328 119.226 279.505 118.692 279.444 118.158C278.364 108.717 270.068 101.372 259.995 101.372C249.921 101.372 241.625 108.717 240.545 118.16C240.484 118.694 240.661 119.227 241.032 119.628C241.404 120.028 241.934 120.256 242.491 120.256L277.499 120.255Z" fill="#FAAD14"/>
<path d="M259.972 101.375C253.668 101.371 247.749 104.301 244.076 109.245C253.732 115.248 266.128 115.27 275.807 109.302L275.878 109.257C272.206 104.306 266.282 101.371 259.972 101.375Z" fill="#253368"/>
<path d="M260.009 111.527C276.22 111.527 289.362 98.8468 289.362 83.2046C289.362 67.5623 276.22 54.8818 260.009 54.8818C243.798 54.8818 230.656 67.5623 230.656 83.2046C230.656 98.8468 243.798 111.527 260.009 111.527Z" fill="#FAAD14"/>
<path d="M260.009 100.43C268.655 100.43 275.664 93.6671 275.664 85.3247C275.664 76.9822 268.655 70.2194 260.009 70.2194C251.363 70.2194 244.354 76.9822 244.354 85.3247C244.354 93.6671 251.363 100.43 260.009 100.43Z" fill="#253368"/>
<path d="M260.009 92.8778C264.333 92.8778 267.837 89.4961 267.837 85.3247C267.837 81.1532 264.333 77.7716 260.009 77.7716C255.686 77.7716 252.182 81.1532 252.182 85.3247C252.182 89.4961 255.686 92.8778 260.009 92.8778Z" fill="#FAAD14"/>
<path d="M260.008 88.1569C261.629 88.1569 262.944 86.8889 262.944 85.3247C262.944 83.7606 261.629 82.4926 260.008 82.4926C258.387 82.4926 257.073 83.7606 257.073 85.3247C257.073 86.8889 258.387 88.1569 260.008 88.1569Z" fill="#253368"/>
<path d="M235.599 82.8492C235.724 82.8492 235.839 82.9099 235.907 83.0098L235.917 83.0244L237.573 85.7418L244.147 85.7418C244.345 85.7418 244.507 85.8924 244.515 86.0813L244.516 86.0971C244.516 86.2881 244.36 86.4439 244.164 86.4522L244.147 86.4525H237.363C237.238 86.4525 237.122 86.3918 237.055 86.2919L237.045 86.2773L235.388 83.5599L230.559 83.56C230.361 83.56 230.199 83.4093 230.191 83.2204L230.19 83.2046C230.19 83.0136 230.347 82.8578 230.542 82.8495L230.559 82.8492H235.599Z" fill="#253368"/>
<path d="M289.423 82.8492C289.626 82.8492 289.791 83.0083 289.791 83.2046C289.791 83.3955 289.635 83.5513 289.439 83.5596L289.423 83.56L284.592 83.5599L282.937 86.2773C282.873 86.3809 282.761 86.4464 282.637 86.4521L282.619 86.4525H275.639C275.435 86.4525 275.271 86.2934 275.271 86.0971C275.271 85.9062 275.427 85.7504 275.622 85.7421L275.639 85.7418L282.408 85.7418L284.064 83.0244C284.127 82.9208 284.24 82.8553 284.364 82.8496L284.382 82.8492H289.423Z" fill="#253368"/>
<path fill-rule="evenodd" clip-rule="evenodd" d="M106.329 297.75V341.861H113.194V298.656C113.194 298.656 105.801 297.75 106.329 297.75Z" fill="#253368"/>
<path fill-rule="evenodd" clip-rule="evenodd" d="M132.492 289.479C132.492 297.094 126.319 303.264 118.706 303.264C111.094 303.264 104.923 297.094 104.923 289.479C104.923 281.864 111.094 275.694 118.706 275.694C126.319 275.694 132.492 281.864 132.492 289.479Z" fill="#FAAD14"/>
<path fill-rule="evenodd" clip-rule="evenodd" d="M95.7916 309.755L114.921 302.201C119.555 300.372 121.472 295.01 119.003 290.793C116.493 286.504 110.627 285.399 106.642 288.466L90.6462 300.767C88.6467 302.195 87.7955 304.791 88.8113 306.988C89.2309 307.893 89.9275 308.771 91.0498 309.448C92.4651 310.3 94.2458 310.359 95.7916 309.755Z" fill="#FAAD14"/>
<path d="M109.057 289.479C109.057 289.479 115.33 291.877 114.495 300.507" stroke="#253368" stroke-width="5.29333" stroke-linecap="round" stroke-linejoin="round"/>
<path fill-rule="evenodd" clip-rule="evenodd" d="M72.7866 347.375H143.95C146.757 347.375 149.033 346.758 149.033 345.996V337.726C149.033 336.964 146.757 336.347 143.95 336.347H72.7866C69.9795 336.347 67.7033 336.964 67.7033 337.726V345.996C67.7033 346.758 69.9795 347.375 72.7866 347.375Z" fill="#253368"/>
<circle cx="385.806" cy="158.57" r="44.8624" fill="#E0E0E0"/>
<path fill-rule="evenodd" clip-rule="evenodd" d="M375.13 167.515L375.13 167.464L385.806 167.464L385.806 157.719L375.13 157.719L375.13 157.661L358.433 144.912C357.282 144.034 355.769 145.015 355.769 146.639L355.769 157.719L355.769 167.464L355.769 178.537C355.769 180.161 357.282 181.142 358.433 180.264L375.13 167.515Z" fill="#FAAD14"/>
<path fill-rule="evenodd" clip-rule="evenodd" d="M415.213 179.006H376.44C374.911 179.006 373.671 177.169 373.671 174.901V150.274C373.671 148.007 374.911 146.17 376.44 146.17H415.213C416.742 146.17 417.982 148.007 417.982 150.274V174.901C417.982 177.169 416.742 179.006 415.213 179.006Z" fill="#253368"/>
<path d="M393.639 134.79C393.639 139.437 389.872 143.204 385.225 143.204C380.578 143.204 376.811 139.437 376.811 134.79C376.811 130.143 380.578 126.376 385.225 126.376C389.872 126.376 393.639 130.143 393.639 134.79Z" stroke="#FAAD14" stroke-width="2.75694"/>
<path d="M412.966 136.071C412.966 140.011 409.772 143.204 405.833 143.204C401.893 143.204 398.7 140.011 398.7 136.071C398.7 132.132 401.893 128.939 405.833 128.939C409.772 128.939 412.966 132.132 412.966 136.071Z" stroke="#FAAD14" stroke-width="2.75694"/>
</g>
<defs>
<clipPath id="clip0">
<rect x="0.371094" width="497.628" height="397" rx="27.5694" fill="white"/>
</clipPath>
</defs>
</svg>
