<svg width="602" height="205" viewBox="0 0 602 205" fill="none" xmlns="http://www.w3.org/2000/svg">
<path fill-rule="evenodd" clip-rule="evenodd" d="M398.51 3.88293C398.766 3.77713 399 3.91312 399.034 4.18667C399.068 4.46021 398.888 4.76773 398.633 4.87353C396.56 5.73127 394.376 6.72666 392.103 7.86733C391.851 7.99393 391.603 7.8821 391.55 7.61754C391.496 7.35297 391.657 7.03587 391.91 6.90927C394.206 5.75691 396.414 4.75064 398.51 3.88293ZM405.227 2.47277C404.97 2.55269 404.753 2.3887 404.743 2.10651C404.733 1.82431 404.934 1.53076 405.191 1.45085C406.364 1.08727 407.479 0.777815 408.531 0.520569L408.512 1.55787C407.479 1.81034 406.382 2.11459 405.227 2.47277ZM385.408 10.4425C385.656 10.2976 385.914 10.3868 385.985 10.6417C386.056 10.8967 385.913 11.2209 385.665 11.3659C383.606 12.5698 381.499 13.8842 379.357 15.3137C379.114 15.4755 378.847 15.4084 378.759 15.1638C378.671 14.9192 378.797 14.5897 379.039 14.4279C381.202 12.985 383.329 11.6581 385.408 10.4425ZM372.827 18.8341C373.063 18.6564 373.339 18.7015 373.442 18.9349C373.546 19.1683 373.438 19.5015 373.202 19.6791C371.224 21.1676 369.228 22.7531 367.226 24.4391C366.997 24.6318 366.715 24.6087 366.596 24.3876C366.477 24.1665 366.566 23.831 366.795 23.6383C368.816 21.9366 370.83 20.3364 372.827 18.8341ZM360.966 28.8223C361.186 28.6154 361.473 28.6162 361.607 28.8241C361.741 29.032 361.67 29.3683 361.45 29.5751C359.594 31.3167 357.741 33.1471 355.899 35.069C355.688 35.2893 355.397 35.3108 355.249 35.1171C355.1 34.9234 355.151 34.5879 355.363 34.3676C357.222 32.4276 359.092 30.5801 360.966 28.8223ZM350.01 40.2544C350.211 40.0217 350.505 39.9779 350.667 40.1564C350.828 40.335 350.797 40.6684 350.596 40.901C348.907 42.8592 347.234 44.8991 345.585 47.023C345.395 47.267 345.1 47.3329 344.925 47.1702C344.75 47.0075 344.762 46.6778 344.951 46.4338C346.616 44.29 348.305 42.2309 350.01 40.2544ZM340.183 52.9074C340.36 52.6532 340.656 52.5656 340.843 52.7118C341.03 52.858 341.037 53.1827 340.86 53.4369C339.365 55.5776 337.896 57.7936 336.458 60.0868C336.293 60.3501 335.999 60.4586 335.801 60.3292C335.602 60.1998 335.576 59.8816 335.741 59.6183C337.191 57.3043 338.674 55.0679 340.183 52.9074ZM331.621 66.5595C331.773 66.2886 332.065 66.16 332.274 66.2724C332.482 66.3847 332.528 66.6954 332.375 66.9663C331.097 69.2446 329.85 71.5915 328.639 74.0086C328.501 74.2859 328.212 74.4334 327.995 74.338C327.777 74.2427 327.714 73.9405 327.853 73.6631C329.074 71.2254 330.331 68.858 331.621 66.5595ZM324.417 80.9351C324.543 80.6526 324.827 80.4873 325.053 80.566C325.278 80.6447 325.358 80.9375 325.233 81.2201C324.174 83.5991 323.151 86.0403 322.166 88.5449C322.053 88.8314 321.774 89.0131 321.542 88.9507C321.31 88.8882 321.214 88.6053 321.326 88.3187C322.319 85.7946 323.35 83.3337 324.417 80.9351ZM318.575 95.7788C318.675 95.4893 318.948 95.2925 319.186 95.3394C319.424 95.3862 319.536 95.6589 319.436 95.9484C319.009 97.186 318.591 98.4379 318.183 99.7043L317.313 99.5623C317.724 98.2868 318.145 97.0256 318.575 95.7788ZM34.4693 10C34.1931 9.99705 33.9669 10.2185 33.9639 10.4946C33.9609 10.7707 34.1824 10.997 34.4585 11C36.7305 11.0244 39.063 11.0734 41.4509 11.149C41.7269 11.1577 41.9577 10.9411 41.9665 10.6651C41.9752 10.3891 41.7585 10.1582 41.4825 10.1495C39.0878 10.0737 36.7483 10.0246 34.4693 10ZM27.4705 11.002C27.7467 10.9988 27.9679 10.7723 27.9647 10.4962C27.9614 10.2201 27.735 9.99888 27.4589 10.0021C25.0436 10.0303 22.7117 10.087 20.4705 10.1691C20.1946 10.1792 19.9791 10.4111 19.9892 10.687C19.9993 10.963 20.2312 11.1785 20.5071 11.1684C22.7398 11.0866 25.0634 11.0302 27.4705 11.002ZM48.4891 10.4414C48.2133 10.4272 47.9782 10.6392 47.964 10.915C47.9498 11.1908 48.1618 11.4258 48.4376 11.4401C50.7218 11.5578 53.0485 11.6996 55.4136 11.867C55.6891 11.8865 55.9282 11.679 55.9477 11.4036C55.9672 11.1281 55.7597 10.889 55.4843 10.8695C53.1127 10.7016 50.7796 10.5594 48.4891 10.4414ZM13.5287 11.523C13.8042 11.5048 14.0129 11.2667 13.9947 10.9911C13.9766 10.7156 13.7385 10.507 13.4629 10.5251C12.2745 10.6035 11.1197 10.6894 10 10.7824L10.0827 11.779C11.1966 11.6865 12.3458 11.601 13.5287 11.523ZM62.4642 11.4299C62.1892 11.4052 61.9462 11.6081 61.9215 11.8832C61.8969 12.1582 62.0998 12.4012 62.3749 12.4259C64.662 12.6311 66.9797 12.8603 69.3246 13.1148C69.5991 13.1446 69.8458 12.9462 69.8756 12.6717C69.9054 12.3972 69.707 12.1505 69.4325 12.1207C67.0813 11.8655 64.7575 11.6356 62.4642 11.4299ZM76.3833 12.9406C76.1093 12.9057 75.859 13.0995 75.8241 13.3734C75.7892 13.6473 75.9829 13.8977 76.2569 13.9326C78.541 14.2236 80.847 14.5389 83.1719 14.8794C83.4452 14.9195 83.6991 14.7304 83.7391 14.4572C83.7792 14.184 83.5901 13.93 83.3169 13.89C80.9856 13.5485 78.6735 13.2324 76.3833 12.9406ZM90.2318 14.9698C89.9594 14.9246 89.7019 15.1088 89.6567 15.3812C89.6115 15.6536 89.7957 15.9111 90.0681 15.9563C92.3456 16.3341 94.6382 16.7366 96.9432 17.1648C97.2147 17.2152 97.4757 17.036 97.5262 16.7645C97.5766 16.493 97.3974 16.2321 97.1259 16.1816C94.8144 15.7522 92.5155 15.3487 90.2318 14.9698ZM103.997 17.5277C103.726 17.4719 103.462 17.6459 103.406 17.9164C103.35 18.1868 103.524 18.4513 103.795 18.5071C106.061 18.9743 108.336 19.4668 110.619 19.9857C110.888 20.0469 111.156 19.8782 111.217 19.6089C111.279 19.3397 111.11 19.0718 110.841 19.0106C108.551 18.4902 106.269 17.9962 103.997 17.5277ZM117.655 20.6334C117.387 20.5666 117.115 20.7297 117.049 20.9976C116.982 21.2656 117.145 21.5369 117.413 21.6037C119.662 22.1642 121.916 22.7508 124.172 23.3645C124.438 23.4369 124.713 23.2797 124.786 23.0132C124.858 22.7468 124.701 22.472 124.434 22.3995C122.171 21.7839 119.911 21.1955 117.655 20.6334ZM131.175 24.3127C130.91 24.2344 130.632 24.3855 130.554 24.6503C130.475 24.9151 130.627 25.1933 130.891 25.2716C133.117 25.9301 135.342 26.6156 137.566 27.3292C137.829 27.4135 138.111 27.2688 138.195 27.0059C138.279 26.7429 138.135 26.4614 137.872 26.377C135.641 25.6611 133.408 24.9733 131.175 24.3127ZM144.513 28.5947C144.252 28.5041 143.967 28.6422 143.877 28.903C143.786 29.1639 143.924 29.4488 144.185 29.5394C146.378 30.3008 148.567 31.0904 150.749 31.909C151.008 32.0059 151.296 31.8749 151.393 31.6164C151.49 31.3578 151.359 31.0696 151.101 30.9727C148.91 30.1511 146.714 29.3587 144.513 28.5947ZM157.628 33.5158C157.372 33.4123 157.081 33.5358 156.977 33.7918C156.873 34.0478 156.997 34.3393 157.253 34.4428C159.407 35.3142 161.553 36.2149 163.688 37.1459C163.942 37.2562 164.236 37.1404 164.347 36.8873C164.457 36.6342 164.341 36.3395 164.088 36.2292C161.944 35.2946 159.79 34.3904 157.628 33.5158ZM170.473 39.1177C170.223 39.0003 169.925 39.1079 169.808 39.3578C169.69 39.6078 169.798 39.9056 170.048 40.0229C172.152 41.0106 174.244 42.029 176.322 43.0789C176.569 43.2035 176.869 43.1046 176.994 42.8581C177.118 42.6117 177.02 42.3109 176.773 42.1864C174.686 41.132 172.585 40.1093 170.473 39.1177ZM182.98 45.44C182.737 45.3081 182.434 45.3978 182.302 45.6404C182.17 45.883 182.259 46.1866 182.502 46.3185C184.544 47.4287 186.57 48.5711 188.578 49.7464C188.816 49.8859 189.123 49.8058 189.262 49.5675C189.402 49.3291 189.321 49.0229 189.083 48.8834C187.066 47.7026 185.031 46.5551 182.98 45.44ZM195.073 52.5217C194.84 52.3745 194.531 52.4445 194.384 52.6782C194.237 52.9118 194.307 53.2205 194.54 53.3677C196.506 54.6068 198.453 55.8795 200.377 57.1864C200.606 57.3416 200.917 57.2821 201.072 57.0537C201.227 56.8252 201.167 56.5143 200.939 56.3592C199.005 55.0456 197.049 53.7668 195.073 52.5217ZM206.668 60.3992C206.445 60.2361 206.132 60.2844 205.969 60.5072C205.806 60.73 205.854 61.0429 206.077 61.206C207.952 62.5786 209.802 63.9862 211.628 65.4295C211.844 65.6007 212.159 65.564 212.33 65.3474C212.501 65.1307 212.465 64.8163 212.248 64.645C210.413 63.194 208.552 61.779 206.668 60.3992ZM217.665 69.0977C217.455 68.9183 217.139 68.943 216.96 69.1529C216.78 69.3628 216.805 69.6784 217.015 69.8579C218.779 71.3656 220.516 72.9095 222.224 74.4903C222.426 74.6779 222.743 74.6657 222.93 74.463C223.118 74.2603 223.106 73.944 222.903 73.7564C221.185 72.1665 219.439 70.6139 217.665 69.0977ZM227.951 78.6218C227.756 78.4261 227.439 78.4255 227.243 78.6203C227.048 78.8152 227.047 79.1318 227.242 79.3274C228.062 80.1512 228.875 80.9843 229.68 81.8268L230.403 81.136C229.593 80.2885 228.776 79.4504 227.951 78.6218ZM267.14 149.644C267.67 150.444 268.247 151.355 268.857 152.366L269.713 151.849C269.096 150.827 268.512 149.904 267.973 149.092L267.14 149.644ZM272.019 157.986C272.96 159.77 273.926 161.708 274.888 163.77L275.794 163.348C274.826 161.27 273.852 159.318 272.904 157.519L272.019 157.986ZM277.474 169.686C278.269 171.631 279.039 173.649 279.764 175.721L280.707 175.391C279.977 173.302 279.201 171.268 278.4 169.307L277.474 169.686ZM281.723 181.868C282.018 182.898 282.299 183.937 282.564 184.981C282.964 186.564 283.326 188.161 283.642 189.766L284.623 189.572C284.303 187.949 283.938 186.335 283.533 184.736C283.266 183.681 282.983 182.632 282.684 181.592L281.723 181.868ZM284.932 199.471C285.036 201.11 285.077 202.741 285.047 204.359L286.047 204.377C286.077 202.73 286.036 201.071 285.93 199.408L284.932 199.471ZM335.973 149.644C335.381 150.537 334.731 151.569 334.041 152.724L333.183 152.211C333.88 151.044 334.538 149.999 335.14 149.092L335.973 149.644ZM330.509 159.108C329.466 161.136 328.4 163.341 327.351 165.685L326.439 165.277C327.495 162.915 328.569 160.694 329.62 158.651L330.509 159.108ZM324.555 172.429C323.704 174.654 322.896 176.958 322.157 179.316L321.203 179.017C321.948 176.638 322.764 174.315 323.621 172.072L324.555 172.429ZM320.216 186.344C319.654 188.707 319.183 191.097 318.825 193.492L317.836 193.344C318.198 190.919 318.676 188.501 319.243 186.113L320.216 186.344ZM318.114 200.728C318.061 201.944 318.044 203.156 318.066 204.359L317.066 204.377C317.044 203.152 317.061 201.92 317.115 200.685L318.114 200.728ZM308.316 160.719C308.519 159.216 308.71 157.897 308.876 156.799L307.9 156.694C307.733 157.796 307.541 159.121 307.337 160.63L308.316 160.719ZM306.633 176.467C306.849 173.688 307.101 171.037 307.363 168.585L306.381 168.525C306.117 170.986 305.865 173.647 305.647 176.437L306.633 176.467ZM305.954 192.234C305.963 189.591 306.033 186.948 306.148 184.353L305.16 184.357C305.045 186.965 304.974 189.622 304.966 192.28L305.954 192.234ZM306.391 203.994C306.282 202.709 306.195 201.405 306.129 200.089L305.142 200.191C305.209 201.518 305.296 202.833 305.406 204.131L306.391 203.994ZM567.072 10.4952C567.069 10.2191 566.842 9.99775 566.566 10.0008C564.283 10.0261 561.939 10.0764 559.539 10.1538C559.263 10.1627 559.046 10.3937 559.055 10.6697C559.064 10.9457 559.295 11.1622 559.571 11.1533C561.964 11.0761 564.301 11.0259 566.577 11.0007C566.853 10.9977 567.075 10.7714 567.072 10.4952ZM573.085 10.4961C573.082 10.7722 573.303 10.9987 573.579 11.0019C575.991 11.0303 578.319 11.0874 580.556 11.1703C580.832 11.1805 581.064 10.9651 581.074 10.6892C581.084 10.4132 580.869 10.1812 580.593 10.171C578.347 10.0878 576.011 10.0304 573.591 10.002C573.315 9.99876 573.088 10.22 573.085 10.4961ZM553.044 10.9249C553.03 10.6491 552.794 10.4373 552.519 10.4518C550.224 10.5722 547.886 10.7172 545.51 10.8884C545.235 10.9082 545.027 11.1476 545.047 11.423C545.067 11.6984 545.307 11.9056 545.582 11.8858C547.952 11.7151 550.283 11.5705 552.571 11.4504C552.847 11.4359 553.059 11.2007 553.044 10.9249ZM587.081 10.9979C587.063 11.2734 587.271 11.5117 587.547 11.5301C588.732 11.6093 589.884 11.6962 590.999 11.7902L591.083 10.7937C589.961 10.6992 588.804 10.6119 587.614 10.5324C587.338 10.5139 587.1 10.7224 587.081 10.9979ZM539.063 11.9117C539.038 11.6367 538.795 11.4341 538.52 11.4592C536.223 11.6689 533.895 11.903 531.539 12.163C531.265 12.1933 531.067 12.4403 531.097 12.7148C531.127 12.9893 531.375 13.1872 531.649 13.157C533.998 12.8977 536.32 12.6642 538.611 12.4551C538.886 12.43 539.088 12.1867 539.063 11.9117ZM525.134 13.4301C525.099 13.1563 524.848 12.963 524.574 12.9985C522.28 13.2957 519.964 13.6176 517.629 13.9653C517.356 14.006 517.168 14.2604 517.208 14.5335C517.249 14.8067 517.503 14.9951 517.776 14.9544C520.105 14.6076 522.415 14.2866 524.702 13.9902C524.976 13.9547 525.169 13.704 525.134 13.4301ZM511.28 15.4746C511.234 15.2024 510.976 15.0188 510.704 15.0648C508.417 15.4505 506.115 15.8613 503.8 16.2984C503.529 16.3497 503.35 16.6112 503.401 16.8825C503.453 17.1539 503.714 17.3323 503.986 17.2811C506.294 16.8452 508.589 16.4355 510.87 16.0508C511.142 16.0049 511.326 15.7469 511.28 15.4746ZM497.512 18.0553C497.456 17.785 497.191 17.6118 496.92 17.6685C494.645 18.1454 492.36 18.6481 490.068 19.1776C489.799 19.2398 489.632 19.5083 489.694 19.7774C489.756 20.0464 490.024 20.2141 490.293 20.152C492.579 19.624 494.857 19.1227 497.126 18.6472C497.396 18.5906 497.569 18.3256 497.512 18.0553ZM483.855 21.1908C483.787 20.9231 483.515 20.7611 483.247 20.8289C480.989 21.4008 478.727 21.9994 476.462 22.6257C476.196 22.6993 476.04 22.9747 476.113 23.2408C476.187 23.507 476.462 23.6631 476.728 23.5895C478.986 22.9652 481.242 22.3685 483.493 21.7983C483.761 21.7305 483.923 21.4585 483.855 21.1908ZM470.339 24.9065C470.26 24.6421 469.981 24.4922 469.717 24.5717C467.483 25.2435 465.249 25.943 463.017 26.671C462.754 26.7566 462.611 27.0388 462.696 27.3014C462.782 27.5639 463.064 27.7073 463.327 27.6217C465.551 26.8961 467.778 26.1989 470.005 25.5293C470.269 25.4498 470.419 25.171 470.339 24.9065ZM457.01 29.2312C456.918 28.9708 456.633 28.8342 456.372 28.9261C454.172 29.7027 451.975 30.5081 449.785 31.343C449.527 31.4414 449.397 31.7303 449.496 31.9883C449.594 32.2464 449.883 32.3758 450.141 32.2774C452.323 31.4455 454.512 30.643 456.705 29.8691C456.965 29.7772 457.102 29.4916 457.01 29.2312ZM443.911 34.1995C443.807 33.9441 443.514 33.8222 443.259 33.9272C441.098 34.8156 438.945 35.734 436.802 36.6833C436.55 36.7952 436.436 37.0905 436.548 37.343C436.66 37.5955 436.955 37.7095 437.207 37.5976C439.342 36.6521 441.487 35.7371 443.639 34.8521C443.895 34.747 444.017 34.4549 443.911 34.1995ZM431.09 39.8524C430.971 39.6032 430.672 39.4975 430.423 39.6164C428.313 40.6231 426.215 41.6611 424.13 42.7313C423.884 42.8574 423.788 43.1588 423.914 43.4045C424.04 43.6501 424.341 43.747 424.587 43.6209C426.662 42.5552 428.752 41.5215 430.854 40.519C431.103 40.4001 431.209 40.1017 431.09 39.8524ZM418.612 46.2283C418.479 45.9866 418.174 45.8989 417.933 46.0325C415.886 47.1634 413.855 48.327 411.842 49.5242C411.604 49.6654 411.526 49.9722 411.667 50.2095C411.809 50.4469 412.115 50.5249 412.353 50.3837C414.357 49.192 416.379 48.0336 418.416 46.9078C418.658 46.7742 418.746 46.47 418.612 46.2283ZM406.556 53.3632C406.408 53.1306 406.098 53.0628 405.866 53.2117C403.896 54.4729 401.945 55.7683 400.017 57.0987C399.789 57.2555 399.732 57.5669 399.889 57.7942C400.046 58.0215 400.357 58.0787 400.584 57.9219C402.504 56.5981 404.444 55.3091 406.405 54.0539C406.638 53.905 406.705 53.5958 406.556 53.3632ZM395.006 61.2914C394.841 61.0698 394.528 61.0237 394.306 61.1885C392.429 62.5845 390.575 64.016 388.747 65.4838C388.532 65.6567 388.497 65.9714 388.67 66.1867C388.843 66.4021 389.158 66.4365 389.373 66.2636C391.192 64.8037 393.036 63.3797 394.903 61.9909C395.125 61.8262 395.171 61.5129 395.006 61.2914ZM384.058 70.0353C383.877 69.8267 383.561 69.8043 383.353 69.9853C381.587 71.5169 379.849 73.0852 378.139 74.691C377.938 74.88 377.928 75.1964 378.117 75.3977C378.306 75.599 378.622 75.6089 378.824 75.4199C380.524 73.8233 382.252 72.2638 384.008 70.7406C384.217 70.5596 384.239 70.2438 384.058 70.0353ZM373.824 79.5952C373.627 79.4018 373.311 79.4047 373.117 79.6017C372.296 80.4378 371.483 81.2834 370.677 82.1385L371.405 82.8242C372.206 81.9742 373.015 81.1336 373.831 80.3023C374.024 80.1053 374.021 79.7887 373.824 79.5952Z" fill="#00A1B7"/>
<path d="M291.409 156.747C292.676 165.121 298.505 185.837 294.898 203.757" stroke="#00A1B7" stroke-dasharray="7 7"/>
<path d="M194.57 2.47279C194.827 2.5527 195.044 2.38872 195.054 2.10652C195.064 1.82433 194.863 1.53078 194.606 1.45086L194.57 2.47279ZM201.287 3.88295C201.031 3.77715 200.797 3.91313 200.763 4.18668C200.729 4.46023 200.909 4.76775 201.165 4.87355L201.287 3.88295ZM207.694 7.86734C207.946 7.99395 208.194 7.88211 208.247 7.61755C208.301 7.35299 208.14 7.03589 207.887 6.90928L207.694 7.86734ZM214.389 10.4425C214.142 10.2976 213.883 10.3868 213.812 10.6418C213.741 10.8967 213.884 11.2209 214.132 11.3659L214.389 10.4425ZM220.44 15.3137C220.683 15.4755 220.951 15.4084 221.038 15.1638C221.126 14.9192 221 14.5897 220.758 14.4279L220.44 15.3137ZM226.97 18.8341C226.734 18.6564 226.458 18.7016 226.355 18.9349C226.251 19.1683 226.359 19.5015 226.595 19.6791L226.97 18.8341ZM232.572 24.4392C232.8 24.6318 233.082 24.6087 233.201 24.3876C233.32 24.1665 233.231 23.831 233.002 23.6384L232.572 24.4392ZM238.831 28.8223C238.611 28.6154 238.324 28.6162 238.19 28.8241C238.056 29.032 238.127 29.3683 238.347 29.5752L238.831 28.8223ZM243.898 35.0691C244.109 35.2893 244.4 35.3108 244.549 35.1171C244.697 34.9234 244.646 34.5879 244.435 34.3676L243.898 35.0691ZM249.787 40.2544C249.586 40.0217 249.292 39.9779 249.131 40.1565C248.969 40.335 249 40.6684 249.201 40.9011L249.787 40.2544ZM254.213 47.023C254.402 47.267 254.697 47.3329 254.872 47.1702C255.047 47.0075 255.035 46.6778 254.846 46.4338L254.213 47.023ZM259.614 52.9074C259.437 52.6532 259.141 52.5656 258.954 52.7118C258.767 52.8581 258.76 53.1827 258.937 53.4369L259.614 52.9074ZM263.339 60.0869C263.504 60.3501 263.798 60.4586 263.997 60.3292C264.195 60.1998 264.222 59.8816 264.057 59.6184L263.339 60.0869ZM268.176 66.5595C268.024 66.2886 267.732 66.16 267.523 66.2724C267.315 66.3847 267.27 66.6954 267.422 66.9663L268.176 66.5595ZM271.158 74.0086C271.297 74.286 271.585 74.4335 271.802 74.3381C272.02 74.2427 272.083 73.9405 271.944 73.6632L271.158 74.0086ZM275.38 80.9351C275.254 80.6526 274.97 80.4873 274.745 80.566C274.519 80.6447 274.439 80.9375 274.565 81.2201L275.38 80.9351ZM277.631 88.5449C277.744 88.8315 278.023 89.0132 278.255 88.9507C278.487 88.8883 278.584 88.6053 278.471 88.3188L277.631 88.5449ZM281.222 95.7788C281.122 95.4893 280.849 95.2926 280.611 95.3394C280.373 95.3862 280.262 95.6589 280.361 95.9484L281.222 95.7788ZM191.285 1.55789C192.318 1.81035 193.415 2.1146 194.57 2.47279L194.606 1.45086C193.433 1.08728 192.318 0.77783 191.266 0.520584L191.285 1.55789ZM201.165 4.87355C203.237 5.73128 205.421 6.72668 207.694 7.86734L207.887 6.90928C205.591 5.75693 203.383 4.75066 201.287 3.88295L201.165 4.87355ZM214.132 11.3659C216.191 12.5698 218.298 13.8842 220.44 15.3137L220.758 14.4279C218.596 12.985 216.468 11.6581 214.389 10.4425L214.132 11.3659ZM226.595 19.6791C228.573 21.1676 230.569 22.7531 232.572 24.4392L233.002 23.6384C230.981 21.9367 228.967 20.3364 226.97 18.8341L226.595 19.6791ZM238.347 29.5752C240.203 31.3167 242.056 33.1471 243.898 35.0691L244.435 34.3676C242.575 32.4277 240.705 30.5801 238.831 28.8223L238.347 29.5752ZM249.201 40.9011C250.89 42.8592 252.563 44.8991 254.213 47.023L254.846 46.4338C253.181 44.29 251.492 42.231 249.787 40.2544L249.201 40.9011ZM258.937 53.4369C260.432 55.5776 261.901 57.7936 263.339 60.0869L264.057 59.6184C262.606 57.3043 261.123 55.0679 259.614 52.9074L258.937 53.4369ZM267.422 66.9663C268.7 69.2446 269.947 71.5915 271.158 74.0086L271.944 73.6632C270.723 71.2254 269.466 68.858 268.176 66.5595L267.422 66.9663ZM274.565 81.2201C275.623 83.5991 276.646 86.0404 277.631 88.5449L278.471 88.3188C277.479 85.7946 276.447 83.3338 275.38 80.9351L274.565 81.2201ZM280.361 95.9484C280.789 97.186 281.206 98.4379 281.614 99.7043L282.484 99.5623C282.073 98.2868 281.653 97.0257 281.222 95.7788L280.361 95.9484Z" fill="#00A1B7"/>
<path fill-rule="evenodd" clip-rule="evenodd" d="M268.06 110.995C265.099 107.902 261.601 106.355 257.564 106.355C255.784 106.355 254.035 106.738 252.317 107.503C250.599 108.269 249.471 108.89 248.933 109.365C248.394 109.841 247.98 110.224 247.691 110.514V93.0099H241.356V137.514H247.691V134.007L248.156 134.473C248.405 134.721 248.824 135.057 249.414 135.481C250.004 135.906 250.682 136.319 251.448 136.723C252.214 137.126 253.14 137.462 254.227 137.731C255.313 138 256.426 138.135 257.565 138.135C261.58 138.135 265.074 136.588 268.044 133.495C271.015 130.402 272.5 126.652 272.5 122.245C272.5 117.838 271.02 114.088 268.06 110.995ZM179.374 100.21C180.098 99.486 180.46 98.5757 180.46 97.4791C180.46 96.3825 180.098 95.4722 179.374 94.748C178.649 94.0239 177.738 93.6618 176.641 93.6618C175.544 93.6618 174.633 94.0239 173.909 94.748C173.184 95.4722 172.822 96.3825 172.822 97.4791C172.822 98.5757 173.184 99.486 173.909 100.21C174.633 100.934 175.544 101.296 176.641 101.296C177.738 101.296 178.649 100.934 179.374 100.21ZM179.808 137.514V107.007H173.443V137.514H179.808ZM226.961 137.514L226.961 119.731C226.961 117.227 226.387 115.329 225.238 114.036C224.089 112.743 222.542 112.096 220.596 112.096C218.609 112.096 216.948 112.888 215.612 114.47C214.277 116.053 213.61 118.231 213.61 121.003V137.514H207.244V119.731C207.244 117.227 206.67 115.329 205.521 114.036C204.372 112.743 202.825 112.096 200.879 112.096C198.892 112.096 197.231 112.888 195.895 114.47C194.56 116.053 193.893 118.231 193.893 121.003V137.514L187.527 137.514V107.006H193.893V110.172C194.141 109.882 194.488 109.525 194.933 109.101C195.378 108.677 196.309 108.113 197.727 107.41C199.145 106.706 200.62 106.355 202.152 106.355C203.373 106.355 204.538 106.525 205.645 106.867C206.753 107.208 207.638 107.632 208.3 108.139C208.962 108.646 209.537 109.158 210.023 109.675C210.51 110.193 210.856 110.617 211.063 110.948L211.374 111.444C211.457 111.32 211.597 111.144 211.793 110.917C211.99 110.689 212.414 110.276 213.066 109.676C213.718 109.076 214.417 108.553 215.162 108.108C215.907 107.663 216.885 107.26 218.096 106.898C219.307 106.536 220.565 106.355 221.869 106.355C225.429 106.355 228.229 107.493 230.268 109.769C232.307 112.045 233.327 115.365 233.327 119.731V137.514H226.961ZM256.928 132.424C259.339 132.424 261.476 131.431 263.339 129.445C265.202 127.459 266.134 125.064 266.134 122.26C266.134 119.457 265.202 117.062 263.339 115.076C261.476 113.09 259.339 112.096 256.928 112.096C254.516 112.096 252.373 113.09 250.5 115.076C248.627 117.062 247.69 119.457 247.69 122.26C247.69 125.064 248.627 127.459 250.5 129.445C252.373 131.431 254.516 132.424 256.928 132.424ZM299.594 134.349L299.594 137.514H305.959V107.007L299.594 107.007V123.517C299.594 126.331 298.875 128.519 297.436 130.081C295.997 131.643 294.067 132.424 291.645 132.424C289.575 132.424 287.841 131.7 286.444 130.252C285.047 128.804 284.348 126.983 284.348 124.79V107.007H277.983V124.79C277.983 128.866 279.127 132.109 281.414 134.519C283.701 136.93 286.687 138.135 290.372 138.135C291.448 138.135 292.504 138 293.539 137.731C294.574 137.462 295.433 137.157 296.116 136.816C296.799 136.474 297.436 136.092 298.026 135.668C298.616 135.243 299.004 134.938 299.19 134.752L299.594 134.349ZM333.084 110.514L328.954 114.642C328.789 114.476 328.546 114.243 328.225 113.943C327.904 113.643 327.242 113.261 326.238 112.795C325.234 112.33 324.225 112.097 323.21 112.097C321.844 112.097 320.762 112.412 319.965 113.043C319.169 113.674 318.77 114.414 318.77 115.262C318.77 116.152 319.153 116.897 319.919 117.497C320.685 118.097 321.647 118.552 322.807 118.862C323.966 119.173 325.213 119.561 326.548 120.026C327.883 120.492 329.136 121.014 330.305 121.593C331.475 122.173 332.443 123.062 333.208 124.263C333.974 125.463 334.357 126.911 334.357 128.607C334.357 131.235 333.296 133.48 331.175 135.342C329.053 137.204 326.295 138.135 322.9 138.135C321.409 138.135 319.986 137.949 318.63 137.577C317.274 137.204 316.162 136.759 315.292 136.242C314.423 135.725 313.662 135.202 313.01 134.675C312.358 134.147 311.887 133.697 311.597 133.325L311.132 132.735L315.261 128.607C315.468 128.897 315.774 129.259 316.177 129.694C316.581 130.128 317.45 130.692 318.786 131.385C320.121 132.078 321.492 132.425 322.9 132.425C324.597 132.425 325.87 132.078 326.719 131.385C327.568 130.692 327.992 129.766 327.992 128.608C327.992 127.718 327.609 126.978 326.843 126.388C326.077 125.799 325.115 125.344 323.955 125.023C322.796 124.702 321.549 124.309 320.214 123.844C318.879 123.378 317.626 122.861 316.457 122.292C315.287 121.723 314.32 120.833 313.554 119.623C312.788 118.412 312.405 116.959 312.405 115.262C312.405 112.924 313.435 110.855 315.494 109.055C317.554 107.255 320.126 106.355 323.21 106.355C324.432 106.355 325.617 106.495 326.765 106.774C327.914 107.054 328.851 107.395 329.576 107.798C330.3 108.202 330.937 108.616 331.485 109.04C332.034 109.464 332.432 109.8 332.681 110.049L333.084 110.514ZM395.532 127.024L384.727 93.0099H377.709L366.904 127.024L356.098 93.0099H348.77L363.395 137.514H370.412L381.218 103.841L392.023 137.514H399.01L413.634 93.0099H406.338L395.532 127.024ZM443.895 124.48L420.048 124.48C420.38 126.632 421.441 128.494 423.231 130.066C425.022 131.639 427.149 132.425 429.612 132.425C431.392 132.425 433.053 132.021 434.596 131.214C436.138 130.408 437.23 129.621 437.871 128.856L438.834 127.676L442.964 131.804C442.839 131.97 442.648 132.202 442.389 132.502C442.13 132.802 441.577 133.309 440.728 134.023C439.879 134.737 438.979 135.368 438.027 135.916C437.074 136.465 435.838 136.971 434.316 137.437C432.795 137.902 431.227 138.135 429.612 138.135C425.286 138.135 421.554 136.547 418.418 133.371C415.282 130.195 413.714 126.383 413.714 121.935C413.714 117.652 415.241 113.985 418.294 110.933C421.347 107.881 425.011 106.355 429.286 106.355C433.561 106.355 437.121 107.778 439.967 110.623C442.814 113.468 444.237 117.031 444.237 121.314L443.895 124.48ZM423.48 113.819C425.043 112.464 426.973 111.786 429.271 111.786C431.61 111.786 433.556 112.464 435.108 113.819C436.661 115.174 437.623 116.928 437.996 119.079H420.328C420.867 116.928 421.917 115.174 423.48 113.819ZM466.549 106.355C470.586 106.355 474.084 107.902 477.044 110.995C480.004 114.088 481.484 117.838 481.484 122.245C481.484 126.652 479.999 130.402 477.029 133.495C474.058 136.588 470.565 138.135 466.549 138.135C465.411 138.135 464.298 138 463.211 137.731C462.125 137.462 461.198 137.126 460.432 136.723C459.666 136.319 458.988 135.906 458.398 135.481C457.809 135.057 457.389 134.721 457.141 134.473L456.675 134.007V137.514H450.341V93.0099H456.675V110.514C456.965 110.224 457.379 109.841 457.917 109.365C458.455 108.89 459.583 108.269 461.302 107.503C463.02 106.738 464.769 106.355 466.549 106.355ZM472.325 129.445C470.462 131.431 468.325 132.424 465.913 132.424C463.501 132.424 461.359 131.431 459.486 129.445C457.612 127.459 456.676 125.064 456.676 122.26C456.676 119.457 457.612 117.062 459.486 115.076C461.359 113.09 463.501 112.096 465.913 112.096C468.325 112.096 470.462 113.09 472.325 115.076C474.188 117.062 475.119 119.457 475.119 122.26C475.119 125.064 474.188 127.459 472.325 129.445Z" fill="#161616"/>
<path fill-rule="evenodd" clip-rule="evenodd" d="M133.476 96.7565C134.744 100.219 135.699 103.908 137.737 112.676L137.753 112.747C139.795 121.534 140.739 125.213 142.085 129.042C142.999 131.64 143.944 133.698 145.019 135.282C146.548 137.535 148.439 138.989 150.875 139.202C154.238 139.496 157.177 138.284 159.374 135.827C161.135 133.858 162.357 131.185 163.192 127.861C164.485 122.712 164.858 116.017 164.576 107.796C164.258 98.4982 163.08 90.913 160.999 85.0048L159.679 81.2581L152.185 83.8983L153.505 87.6451C155.284 92.6947 156.343 99.514 156.636 108.068C156.894 115.605 156.557 121.663 155.486 125.925C154.938 128.108 154.226 129.665 153.451 130.532C152.99 131.047 152.564 131.278 151.96 131.299C151.859 131.188 151.735 131.029 151.593 130.821C150.97 129.901 150.287 128.415 149.58 126.406C148.369 122.962 147.46 119.418 145.492 110.949L145.475 110.877C143.355 101.751 142.361 97.9159 140.936 94.0239C139.955 91.3466 138.93 89.2703 137.728 87.7217C135.958 85.4397 133.659 84.1529 130.929 84.532C127.936 84.9476 125.693 86.9843 124.171 90.1199C122.956 92.6218 122.11 95.9842 121.559 100.27C120.518 108.366 120.506 120.074 121.5 135.478L121.756 139.442L129.684 138.93L129.428 134.966C128.465 120.028 128.476 108.773 129.439 101.283C129.89 97.7767 130.54 95.1912 131.318 93.5898C131.446 93.3265 131.57 93.1042 131.687 92.9212C132.234 93.7409 132.845 95.0337 133.476 96.7565ZM135.792 157.131C151.991 146.972 163.507 141.9 170.174 141.9C170.79 141.9 171.29 141.401 171.29 140.784C171.29 140.168 170.79 139.669 170.174 139.669C162.95 139.669 151.15 144.865 134.606 155.24C134.084 155.568 133.926 156.256 134.254 156.778C134.581 157.3 135.27 157.458 135.792 157.131ZM164.079 148.11C157.289 149.544 148.344 153.77 137.285 160.795C136.765 161.125 136.075 160.971 135.745 160.451C135.414 159.931 135.568 159.241 136.088 158.911C147.353 151.756 156.517 147.427 163.618 145.927C164.22 145.8 164.812 146.185 164.94 146.788C165.067 147.391 164.682 147.983 164.079 148.11Z" fill="#00A1B7"/>
</svg>
