<svg width="368" height="65" viewBox="0 0 368 65" fill="none" xmlns="http://www.w3.org/2000/svg">
<path fill-rule="evenodd" clip-rule="evenodd" d="M32.0032 64.0065C49.6781 64.0065 64.0065 49.6781 64.0065 32.0032C64.0065 14.3283 49.6781 0 32.0032 0C14.3283 0 0 14.3283 0 32.0032C0 49.6781 14.3283 64.0065 32.0032 64.0065Z" fill="#00A1B7"/>
<path fill-rule="evenodd" clip-rule="evenodd" d="M24.4205 23.5284C25.4577 25.742 26.3087 28.1439 28.176 33.8648L28.1913 33.9117C30.0771 39.6896 30.926 42.1034 32.0613 44.6104C32.8412 46.3325 33.6143 47.69 34.4596 48.7284C35.7051 50.2584 37.1862 51.2047 39.0181 51.2047C41.4545 51.2047 43.5062 50.1406 44.9299 48.2362C46.0511 46.7364 46.739 44.7998 47.1152 42.4505C47.6883 38.871 47.544 34.3287 46.8693 28.8016C46.1065 22.5528 44.8633 17.4985 43.101 13.6134C42.3709 12.0039 40.4743 11.291 38.8648 12.0211C37.2553 12.7513 36.5425 14.648 37.2726 16.2576C38.7321 19.475 39.8262 23.9233 40.5164 29.5772C41.1243 34.5576 41.2523 38.586 40.7956 41.4386C40.5692 42.8527 40.2122 43.8578 39.804 44.4037C39.6829 44.5657 39.5799 44.6672 39.4558 44.7274C39.4452 44.7147 39.4342 44.7014 39.423 44.6877C38.9862 44.1511 38.4636 43.2335 37.8914 41.9699C36.8915 39.762 36.0798 37.454 34.2754 31.9257L34.2601 31.8788C32.3009 25.8759 31.4094 23.3598 30.2158 20.8125C29.3824 19.034 28.5496 17.6628 27.6117 16.6495C26.1775 15.0999 24.3864 14.2933 22.3678 14.756C20.2301 15.246 18.7191 16.8151 17.8115 19.0721C17.1056 20.8275 16.7156 23.0982 16.5847 25.9372C16.3411 31.2168 16.9949 38.7145 18.5313 48.5009C18.8054 50.2469 20.443 51.4401 22.189 51.166C23.9349 50.8918 25.1281 49.2541 24.8539 47.5081C23.3786 38.1111 22.7582 30.9957 22.9779 26.2322C23.0639 24.3697 23.2776 22.9254 23.5836 21.9322C23.8424 22.3617 24.1241 22.8959 24.4205 23.5284Z" fill="white"/>
<path fill-rule="evenodd" clip-rule="evenodd" d="M191.872 25.366C195.31 25.366 198.29 26.6838 200.811 29.3195C203.332 31.9552 204.592 35.1506 204.592 38.9058C204.592 42.661 203.327 45.8564 200.798 48.4921C198.268 51.1278 195.293 52.4456 191.872 52.4456C190.903 52.4456 189.955 52.3311 189.03 52.1019C188.104 51.8727 187.315 51.5862 186.663 51.2424C186.01 50.8986 185.433 50.546 184.931 50.1846C184.428 49.8232 184.071 49.5367 183.86 49.3251L183.463 48.9285V51.9167H178.068V13.9946H183.463V28.9096C183.71 28.6628 184.062 28.3366 184.521 27.9312C184.979 27.5257 185.94 26.9968 187.403 26.3445C188.866 25.6921 190.356 25.366 191.872 25.366ZM112.305 13.9948H106.355V41.3653L85.2258 13.9948H80.0955V51.9169H86.0456V24.5728L107.175 51.9169H112.305V13.9948ZM125.649 51.9175V25.9221H120.228V51.9175H125.649ZM126.205 17.8033C126.205 18.7377 125.896 19.5134 125.279 20.1305C124.662 20.7475 123.887 21.056 122.952 21.056C122.018 21.056 121.242 20.7475 120.625 20.1305C120.008 19.5134 119.7 18.7377 119.7 17.8033C119.7 16.869 120.008 16.0932 120.625 15.4762C121.242 14.8592 122.018 14.5506 122.952 14.5506C123.887 14.5506 124.662 14.8592 125.279 15.4762C125.896 16.0932 126.205 16.869 126.205 17.8033ZM165.809 36.7638L165.809 51.9168H171.23V36.7638C171.23 33.0439 170.362 30.2142 168.625 28.275C166.889 26.3357 164.504 25.366 161.472 25.366C160.361 25.366 159.29 25.5203 158.259 25.8288C157.227 26.1373 156.394 26.4811 155.76 26.8601C155.125 27.2392 154.53 27.6843 153.975 28.1956C153.419 28.7069 153.058 29.0594 152.89 29.2534C152.723 29.4473 152.604 29.5972 152.533 29.7029L152.269 29.2798C152.093 28.9977 151.797 28.6363 151.383 28.1955C150.969 27.7548 150.48 27.3184 149.915 26.8865C149.351 26.4546 148.598 26.0932 147.654 25.8023C146.711 25.5114 145.719 25.3659 144.679 25.3659C143.375 25.3659 142.119 25.6656 140.911 26.2651C139.703 26.8645 138.91 27.3449 138.531 27.7063C138.152 28.0678 137.856 28.3719 137.645 28.6187V25.9213H132.224V51.9168L137.645 51.9167V37.848C137.645 35.4856 138.213 33.63 139.351 32.2813C140.488 30.9326 141.903 30.2583 143.595 30.2583C145.252 30.2583 146.57 30.8092 147.549 31.9111C148.527 33.013 149.016 34.6305 149.016 36.7638V51.9167H154.437V37.848C154.437 35.4856 155.006 33.63 156.143 32.2813C157.28 30.9326 158.695 30.2583 160.388 30.2583C162.045 30.2583 163.363 30.8092 164.341 31.9111C165.32 33.013 165.809 34.6306 165.809 36.7638ZM196.792 45.0404C195.205 46.7329 193.385 47.5792 191.331 47.5792C189.277 47.5792 187.452 46.7329 185.857 45.0404C184.261 43.348 183.463 41.3073 183.463 38.9184C183.463 36.5296 184.261 34.4889 185.857 32.7964C187.452 31.1039 189.277 30.2577 191.331 30.2577C193.385 30.2577 195.205 31.1039 196.792 32.7964C198.378 34.4889 199.172 36.5296 199.172 38.9184C199.172 41.3073 198.378 43.348 196.792 45.0404ZM227.668 51.9174L227.669 49.2199L227.325 49.5637C227.166 49.7224 226.835 49.9824 226.333 50.3439C225.831 50.7053 225.288 51.0314 224.707 51.3223C224.125 51.6132 223.393 51.8732 222.512 52.1024C221.63 52.3316 220.731 52.4462 219.814 52.4462C216.676 52.4462 214.133 51.4193 212.185 49.3654C210.237 47.3115 209.263 44.548 209.263 41.0749V25.9219H214.684V41.0749C214.684 42.9437 215.279 44.4951 216.469 45.7292C217.659 46.9633 219.136 47.5804 220.899 47.5804C222.961 47.5804 224.605 46.9148 225.831 45.5838C227.056 44.2527 227.668 42.3884 227.668 39.9907V25.922L233.09 25.9219V51.9174H227.668ZM252.675 32.4271L256.192 28.91L255.848 28.5133C255.636 28.3018 255.297 28.0153 254.83 27.6539C254.363 27.2924 253.821 26.9398 253.203 26.5961C252.586 26.2523 251.789 25.9614 250.81 25.7234C249.832 25.4854 248.822 25.3664 247.782 25.3664C245.155 25.3664 242.965 26.1333 241.211 27.6671C239.457 29.2009 238.579 30.9639 238.579 32.9561C238.579 34.4017 238.906 35.6402 239.558 36.6716C240.21 37.703 241.034 38.4611 242.031 38.9459C243.027 39.4307 244.093 39.8714 245.23 40.2681C246.367 40.6648 247.43 40.9998 248.417 41.273C249.404 41.5463 250.224 41.9342 250.876 42.4366C251.529 42.9391 251.855 43.5693 251.855 44.3274C251.855 45.3147 251.493 46.1036 250.771 46.6942C250.048 47.2848 248.964 47.5801 247.518 47.5801C246.319 47.5801 245.151 47.2848 244.014 46.6942C242.877 46.1036 242.136 45.6232 241.793 45.253C241.449 44.8827 241.189 44.5742 241.012 44.3274L237.495 47.8446L237.892 48.347C238.139 48.6644 238.54 49.0478 239.095 49.4974C239.65 49.947 240.298 50.3921 241.039 50.8329C241.779 51.2736 242.727 51.6527 243.882 51.97C245.036 52.2873 246.248 52.446 247.518 52.446C250.409 52.446 252.758 51.6527 254.565 50.066C256.372 48.4793 257.276 46.5664 257.276 44.3274C257.276 42.8817 256.95 41.6476 256.298 40.6251C255.645 39.6025 254.821 38.8444 253.825 38.3508C252.829 37.8571 251.762 37.412 250.625 37.0153C249.488 36.6186 248.426 36.2881 247.438 36.0236C246.451 35.7592 245.631 35.3713 244.979 34.86C244.327 34.3488 244.001 33.7141 244.001 32.956C244.001 32.2332 244.34 31.6029 245.019 31.0652C245.698 30.5275 246.619 30.2586 247.782 30.2586C248.646 30.2586 249.506 30.457 250.361 30.8536C251.216 31.2503 251.78 31.5765 252.053 31.8321C252.326 32.0878 252.533 32.2861 252.675 32.4271Z" fill="#161616"/>
<path fill-rule="evenodd" clip-rule="evenodd" d="M329.744 17.2474V22.6686C329.744 24.8371 328.845 25.9213 327.047 25.9213H324.323V30.7872H329.215V44.327C329.198 49.7394 331.719 52.4456 336.778 52.4456C338.242 52.4456 339.511 52.2693 340.587 51.9167V47.0509L340.19 47.1566C339.943 47.2624 339.595 47.3594 339.145 47.4475C338.696 47.5357 338.268 47.5798 337.863 47.5798C336.928 47.5798 336.153 47.2712 335.536 46.6542C334.919 46.0372 334.61 45.2438 334.61 44.2741V30.7872H340.031V25.9213H334.61V17.2474H329.744ZM294.768 38.9194C294.768 35.2788 296.113 32.1098 298.801 29.4124C301.49 26.715 304.659 25.3663 308.308 25.3663C311.957 25.3663 315.126 26.715 317.815 29.4124C320.504 32.1098 321.848 35.2788 321.848 38.9194C321.848 42.56 320.504 45.7246 317.815 48.4132C315.126 51.1018 311.957 52.446 308.308 52.446C304.659 52.446 301.49 51.1018 298.801 48.4132C296.113 45.7246 294.768 42.56 294.768 38.9194ZM271.693 28.6192L271.693 25.9218H266.272V51.9173L271.693 51.9172V37.8485C271.693 35.4508 272.305 33.5864 273.531 32.2554C274.756 30.9243 276.4 30.2588 278.463 30.2588C280.226 30.2588 281.702 30.8758 282.892 32.1099C284.082 33.344 284.677 34.8955 284.677 36.7643V51.9173H290.099V36.7643C290.099 33.2912 289.124 30.5233 287.176 28.4606C285.228 26.3978 282.685 25.3665 279.547 25.3665C278.648 25.3665 277.753 25.4855 276.863 25.7235C275.972 25.9615 275.241 26.226 274.668 26.5169C274.095 26.8077 273.553 27.1339 273.041 27.4953C272.53 27.8567 272.195 28.1168 272.037 28.2754L271.693 28.6192ZM314.021 32.7701C315.625 34.4449 316.427 36.4944 316.427 38.9185C316.427 41.3427 315.625 43.3922 314.021 45.067C312.416 46.7418 310.512 47.5793 308.309 47.5793C306.105 47.5793 304.197 46.7418 302.583 45.067C300.97 43.3922 300.164 41.3427 300.164 38.9185C300.164 36.4944 300.97 34.4449 302.583 32.7701C304.197 31.0952 306.105 30.2578 308.309 30.2578C310.512 30.2578 312.416 31.0952 314.021 32.7701ZM367.709 40.8102L347.399 40.8102C347.681 42.6437 348.585 44.2304 350.11 45.5703C351.635 46.9102 353.446 47.5801 355.544 47.5801C357.06 47.5801 358.475 47.2363 359.789 46.5488C361.102 45.8612 362.032 45.1913 362.579 44.5389L363.398 43.534L366.916 47.0512C366.81 47.1923 366.647 47.3906 366.426 47.6462C366.206 47.9019 365.734 48.3338 365.012 48.942C364.289 49.5503 363.522 50.088 362.711 50.5552C361.9 51.0224 360.847 51.4543 359.551 51.851C358.255 52.2477 356.919 52.446 355.544 52.446C351.86 52.446 348.682 51.0929 346.011 48.3867C343.34 45.6805 342.004 42.4322 342.004 38.6417C342.004 34.9923 343.305 31.8674 345.905 29.267C348.505 26.6666 351.626 25.3663 355.267 25.3663C358.907 25.3663 361.94 26.5784 364.364 29.0025C366.788 31.4267 368 34.4634 368 38.1128L367.709 40.8102ZM350.321 31.7261C351.652 30.5713 353.296 29.9939 355.253 29.9939C357.245 29.9939 358.903 30.5713 360.225 31.7261C361.547 32.8809 362.367 34.375 362.684 36.2085H347.637C348.095 34.375 348.99 32.8809 350.321 31.7261Z" fill="#00A1B7"/>
</svg>
