<svg width="136" height="21" viewBox="0 0 136 21" fill="none" xmlns="http://www.w3.org/2000/svg">
<g clip-path="url(#clip0)">
<path d="M12.3727 3.97162C8.44657 1.714 6.37329 0.645028 4.77379 1.51348C4.7201 1.54263 4.6672 1.57318 4.6151 1.6051C2.94385 2.62925 2.94385 5.25283 2.94385 10.5C2.94385 15.7471 2.94385 18.3707 4.6151 19.3948C4.6672 19.4267 4.7201 19.4573 4.77379 19.4864C5.57036 19.919 6.48444 19.8709 7.68634 19.4349C7.32669 18.1759 6.9254 16.447 6.51201 14.0723L6.5103 14.0626L6.50884 14.0529C6.44079 13.6021 6.11815 11.3827 6.02919 9.21449C5.98503 8.13789 5.99587 7.02295 6.14183 6.13032C6.21414 5.68799 6.32834 5.24248 6.52181 4.87075C6.71401 4.50152 7.0522 4.08365 7.61652 3.95454C8.28264 3.80219 8.79787 4.16141 9.1018 4.48231C9.40852 4.80614 9.66079 5.24665 9.87387 5.69334C10.3052 6.59762 10.7082 7.8193 11.0875 8.9785L11.1272 9.09982C11.503 10.2489 11.8591 11.3374 12.2229 12.1518C12.4123 12.5758 12.5801 12.8698 12.7202 13.045C12.7426 13.073 12.7617 13.0948 12.7775 13.1116C12.823 13.0901 12.8758 13.0411 12.9431 12.9306C13.0834 12.6999 13.204 12.3089 13.2774 11.7604C13.422 10.6787 13.3422 9.32744 13.2444 8.34771C13.067 6.57002 12.7328 5.06212 12.3727 3.97162Z" fill="#00A1B7"/>
<path d="M9.30258 18.7187C10.4101 18.162 11.7221 17.4045 13.3123 16.4864C17.8565 13.8628 20.1286 12.551 20.1799 10.5916C20.1815 10.5305 20.1815 10.4694 20.1799 10.4083C20.1333 8.63079 18.2591 7.38625 14.519 5.21181C14.7149 6.09828 14.8779 7.09548 14.9855 8.17396C15.0857 9.1784 15.1846 10.6986 15.0117 11.9923C14.9262 12.6314 14.764 13.3041 14.4378 13.8402C14.0883 14.4146 13.5111 14.8787 12.6851 14.8787C12.0518 14.8787 11.6111 14.4603 11.3534 14.1382C11.0744 13.7895 10.8349 13.3359 10.6248 12.8655C10.2226 11.9651 9.84106 10.7983 9.4787 9.69001L9.42398 9.52271C9.03411 8.33122 8.6667 7.22802 8.29406 6.44676C8.1802 6.20806 8.07752 6.02515 7.98849 5.89065C7.9457 6.02308 7.90413 6.19558 7.86861 6.4127C7.7518 7.12713 7.7347 8.10028 7.77746 9.14276C7.86176 11.1979 8.1687 13.3249 8.23751 13.782C8.61743 15.9627 8.98179 17.5579 9.30258 18.7187Z" fill="#00A1B7"/>
<path d="M12.8336 13.163C12.8336 13.1632 12.8316 13.162 12.8276 13.1591C12.8316 13.1613 12.8336 13.1628 12.8336 13.163Z" fill="#00A1B7"/>
<path d="M8.12099 5.60381C8.12099 5.6039 8.11993 5.60521 8.11768 5.6074C8.11984 5.60478 8.12096 5.60369 8.12099 5.60381Z" fill="#00A1B7"/>
<path d="M7.77588 5.63412C7.77591 5.63418 7.77676 5.63485 7.77847 5.63595C7.77764 5.63531 7.77704 5.63488 7.77661 5.63458C7.77612 5.63424 7.77588 5.63409 7.77588 5.63412Z" fill="#00A1B7"/>
<path d="M35.3831 4.59377H37.3604V17.5382H35.6555L28.6336 8.20449V17.5382H26.6562V4.59377H28.3612L35.3831 13.9365V4.59377Z" fill="#161616"/>
<path d="M41.8274 8.66485V17.5382H40.026V8.66485H41.8274ZM41.7045 5.09926C41.9096 5.30987 42.0119 5.57468 42.0119 5.89361C42.0119 6.21257 41.9096 6.47735 41.7045 6.68799C41.4994 6.8986 41.2416 7.00393 40.9311 7.00393C40.6204 7.00393 40.3626 6.8986 40.1578 6.68799C39.9527 6.47735 39.8501 6.21257 39.8501 5.89361C39.8501 5.57468 39.9527 5.30987 40.1578 5.09926C40.3626 4.88862 40.6204 4.78332 40.9311 4.78332C41.2416 4.78332 41.4994 4.88862 41.7045 5.09926Z" fill="#161616"/>
<path d="M55.206 17.5382V12.3658C55.206 11.6377 55.0419 11.0871 54.7138 10.7139C54.3915 10.3348 53.9551 10.1453 53.4045 10.1453C52.8421 10.1453 52.3704 10.3769 51.9896 10.8403C51.6147 11.2977 51.4272 11.9296 51.4272 12.736V17.5382H49.6254V12.3658C49.6254 11.6377 49.4614 11.0871 49.1333 10.7139C48.811 10.3348 48.3746 10.1453 47.824 10.1453C47.2616 10.1453 46.7898 10.3769 46.4091 10.8403C46.0341 11.2977 45.8464 11.9296 45.8464 12.736V17.5382H44.0449V8.66484H45.8464V9.58559C45.917 9.50134 46.0134 9.39902 46.1364 9.27868C46.2654 9.15229 46.529 8.98681 46.9274 8.7822C47.3319 8.57759 47.7507 8.4753 48.1841 8.4753C48.5298 8.4753 48.8579 8.52643 49.1686 8.62875C49.4848 8.72501 49.7368 8.8484 49.9243 8.99884C50.1118 9.14328 50.2728 9.29071 50.4076 9.44114C50.5482 9.59161 50.6477 9.71497 50.7065 9.81126L50.7944 9.95567C50.8179 9.91958 50.8559 9.86842 50.9086 9.80222C50.967 9.73603 51.0872 9.61569 51.2689 9.44114C51.4564 9.26663 51.6554 9.11619 51.8664 8.98983C52.0773 8.8574 52.3527 8.74008 52.6927 8.63776C53.0384 8.52944 53.3957 8.4753 53.7649 8.4753C54.7726 8.4753 55.5636 8.80627 56.1376 9.46823C56.7177 10.1302 57.0077 11.0961 57.0077 12.3658V17.5382H55.206Z" fill="#161616"/>
<path d="M63.9092 8.4753C65.0517 8.4753 66.0421 8.92661 66.8799 9.82931C67.7175 10.726 68.1366 11.8152 68.1366 13.097C68.1366 14.3788 67.7148 15.4711 66.8711 16.3738C66.0332 17.2704 65.0459 17.7188 63.9092 17.7188C63.5872 17.7188 63.2707 17.6796 62.9602 17.6014C62.6556 17.5232 62.3948 17.4269 62.1781 17.3126C61.9614 17.1922 61.7678 17.0718 61.598 16.9515C61.4339 16.8251 61.3168 16.7258 61.2465 16.6536L61.1147 16.5182V17.5382H59.3218V4.59377H61.1147V9.68486C61.1966 9.60062 61.314 9.48929 61.4662 9.35087C61.6187 9.21249 61.9379 9.03195 62.424 8.80929C62.9103 8.58663 63.4055 8.4753 63.9092 8.4753ZM61.9057 15.1912C62.4389 15.769 63.0452 16.0578 63.7248 16.0578C64.4102 16.0578 65.0167 15.769 65.5439 15.1912C66.0713 14.6135 66.3349 13.9185 66.3349 13.106C66.3349 12.2876 66.0713 11.5895 65.5439 11.0118C65.0167 10.4341 64.4102 10.1453 63.7248 10.1453C63.0452 10.1453 62.4389 10.4341 61.9057 11.0118C61.3783 11.5895 61.1147 12.2876 61.1147 13.106C61.1147 13.9185 61.3783 14.6135 61.9057 15.1912Z" fill="#161616"/>
<path d="M75.8465 17.5382V16.6175L75.7324 16.7348C75.6794 16.789 75.5683 16.8792 75.3982 17.0056C75.2342 17.126 75.0555 17.2373 74.8623 17.3396C74.669 17.4359 74.4258 17.5232 74.1327 17.6014C73.84 17.6796 73.5411 17.7188 73.2364 17.7188C72.1934 17.7188 71.347 17.3697 70.6966 16.6716C70.052 15.9675 69.7297 15.0227 69.7297 13.8372V8.66484H71.5315V13.8372C71.5315 14.4751 71.7278 15.0047 72.1204 15.4259C72.5188 15.8472 73.0109 16.0578 73.5968 16.0578C74.2822 16.0578 74.827 15.8321 75.2314 15.3808C75.6414 14.9234 75.8465 14.2855 75.8465 13.4671V8.66484H77.6483V17.5382H75.8465Z" fill="#161616"/>
<path d="M85.3583 9.68487L84.1893 10.8855C84.1424 10.8373 84.0721 10.7711 83.9784 10.6869C83.8907 10.5966 83.7032 10.4853 83.4159 10.3529C83.1347 10.2145 82.8508 10.1453 82.5635 10.1453C82.1769 10.1453 81.8692 10.2385 81.6407 10.4251C81.4182 10.6056 81.3068 10.8193 81.3068 11.066C81.3068 11.3248 81.4151 11.5414 81.6318 11.7159C81.8488 11.8904 82.1212 12.0228 82.4493 12.1131C82.7774 12.2034 83.1289 12.3177 83.5039 12.4561C83.8846 12.5885 84.2392 12.739 84.5673 12.9075C84.9012 13.076 85.1766 13.3347 85.3933 13.6838C85.6103 14.0328 85.7186 14.4541 85.7186 14.9475C85.7186 15.7118 85.4167 16.3647 84.8135 16.9063C84.2158 17.448 83.4366 17.7188 82.4758 17.7188C82.054 17.7188 81.6495 17.6646 81.263 17.5563C80.8819 17.448 80.5688 17.3185 80.3225 17.1681C80.0763 17.0177 79.8596 16.8672 79.6721 16.7168C79.4905 16.5603 79.3587 16.4279 79.2768 16.3196L79.145 16.1481L80.3137 14.9475C80.3725 15.0318 80.4574 15.1371 80.5688 15.2634C80.6859 15.3898 80.9318 15.5553 81.3068 15.7599C81.6875 15.9585 82.0774 16.0578 82.4758 16.0578C82.9561 16.0578 83.3164 15.9585 83.5565 15.7599C83.797 15.5553 83.9169 15.2845 83.9169 14.9475C83.9169 14.6887 83.8085 14.4751 83.5918 14.3066C83.3751 14.1321 83.1025 13.9997 82.7744 13.9094C82.4463 13.8131 82.092 13.6988 81.711 13.5664C81.336 13.428 80.9818 13.2775 80.6476 13.1151C80.3195 12.9466 80.0471 12.6878 79.8304 12.3388C79.6137 11.9837 79.5054 11.5594 79.5054 11.066C79.5054 10.386 79.7951 9.78417 80.3752 9.2606C80.9611 8.73707 81.6906 8.4753 82.5635 8.4753C82.9092 8.4753 83.2431 8.51742 83.5654 8.60166C83.8935 8.67988 84.1601 8.77919 84.3652 8.89956C84.5703 9.01387 84.749 9.13424 84.9011 9.2606C85.0594 9.38097 85.1735 9.47727 85.2438 9.54946L85.3583 9.68487Z" fill="#161616"/>
<path d="M89.6856 16.0535C88.7911 15.1557 88.3438 14.1024 88.3438 12.8937C88.3438 11.6791 88.7911 10.6229 89.6856 9.7251C90.5862 8.82734 91.6456 8.37846 92.8639 8.37846C93.5408 8.37846 94.1705 8.52515 94.7533 8.81854C95.3358 9.10606 95.7537 9.39358 96.0069 9.6811L96.3864 10.0948L95.2123 11.2654C95.1535 11.1715 95.0622 11.0571 94.9387 10.9221C94.8209 10.7813 94.5591 10.5935 94.1528 10.3588C93.7526 10.1241 93.3229 10.0067 92.8639 10.0067C92.1283 10.0067 91.4895 10.2855 90.9481 10.8429C90.4124 11.4004 90.1446 12.084 90.1446 12.8937C90.1446 13.6976 90.4124 14.3782 90.9481 14.9357C91.4895 15.4931 92.1283 15.7718 92.8639 15.7718C93.3229 15.7718 93.7526 15.6574 94.1528 15.4286C94.5591 15.1997 94.8504 14.9767 95.0269 14.7597L95.3005 14.4252L96.4747 15.5958C96.4394 15.6428 96.3864 15.7102 96.3158 15.7982C96.2452 15.8804 96.0921 16.0241 95.8569 16.2295C95.6213 16.429 95.3742 16.608 95.1152 16.7664C94.8562 16.919 94.5208 17.0627 94.1087 17.1977C93.6969 17.3268 93.2818 17.3913 92.8639 17.3913C91.6456 17.3913 90.5862 16.9454 89.6856 16.0535Z" fill="#00A1B7"/>
<path d="M99.8678 4.59377V17.2153H98.0667V4.59377H99.8678Z" fill="#00A1B7"/>
<path d="M109.15 17.2153H107.34V16.3175C107.316 16.341 107.275 16.3792 107.216 16.432C107.163 16.4848 107.051 16.5728 106.881 16.696C106.716 16.8134 106.536 16.9219 106.342 17.0217C106.148 17.1156 105.903 17.2006 105.609 17.2769C105.315 17.3532 105.018 17.3913 104.718 17.3913C103.835 17.3913 103.102 17.1361 102.519 16.6256C101.937 16.1151 101.645 15.5312 101.645 14.8741C101.645 14.1641 101.869 13.5685 102.316 13.0873C102.769 12.6062 103.387 12.301 104.17 12.172L107.34 11.6263C107.34 11.1686 107.169 10.7842 106.828 10.4733C106.492 10.1623 106.06 10.0067 105.53 10.0067C105.071 10.0067 104.653 10.1036 104.276 10.2972C103.905 10.485 103.649 10.6757 103.508 10.8693L103.27 11.1774L102.095 10.0067C102.131 9.95982 102.178 9.90114 102.237 9.83071C102.301 9.75444 102.44 9.62537 102.652 9.44346C102.869 9.25568 103.099 9.08847 103.34 8.94177C103.582 8.79508 103.9 8.66597 104.294 8.55449C104.694 8.43713 105.106 8.37846 105.53 8.37846C106.589 8.37846 107.457 8.69239 108.134 9.32023C108.811 9.94223 109.15 10.7109 109.15 11.6263V17.2153ZM104.991 15.7718C105.727 15.7718 106.301 15.5547 106.713 15.1205C107.131 14.6804 107.34 14.0555 107.34 13.2458V13.0697L104.532 13.5186C104.208 13.5773 103.946 13.7093 103.746 13.9147C103.546 14.1201 103.446 14.3782 103.446 14.6892C103.446 14.9767 103.585 15.2291 103.861 15.4462C104.144 15.6633 104.52 15.7718 104.991 15.7718Z" fill="#00A1B7"/>
<path d="M116.171 10.0948C115.93 10.0361 115.659 10.0067 115.359 10.0067C114.67 10.0067 114.12 10.2297 113.708 10.6757C113.302 11.1158 113.099 11.7348 113.099 12.5328V17.2153H111.289V8.56329H113.099V9.46105L113.214 9.34665C113.267 9.29381 113.378 9.20875 113.549 9.09139C113.72 8.96816 113.899 8.8596 114.088 8.76574C114.282 8.66597 114.526 8.57796 114.82 8.50169C115.121 8.41954 115.421 8.37846 115.721 8.37846H116.171V10.0948Z" fill="#00A1B7"/>
<path d="M119.114 8.56328V17.2153H117.304V8.56328H119.114ZM118.99 5.08666C119.196 5.292 119.299 5.55021 119.299 5.86119C119.299 6.17217 119.196 6.43035 118.99 6.63573C118.784 6.8411 118.525 6.94379 118.213 6.94379C117.901 6.94379 117.642 6.8411 117.436 6.63573C117.23 6.43035 117.127 6.17217 117.127 5.86119C117.127 5.55021 117.23 5.292 117.436 5.08666C117.642 4.88128 117.901 4.77859 118.213 4.77859C118.525 4.77859 118.784 4.88128 118.99 5.08666Z" fill="#00A1B7"/>
<path d="M122.427 7.48069V5.67636H124.052V8.56328H125.862V10.1828H124.052V14.6716C124.052 14.9944 124.155 15.2584 124.361 15.4638C124.567 15.6691 124.826 15.7718 125.138 15.7718C125.273 15.7718 125.415 15.7572 125.562 15.7278C125.715 15.6985 125.832 15.6662 125.915 15.631L126.047 15.5958V17.2153C125.688 17.3326 125.264 17.3913 124.776 17.3913C123.087 17.3913 122.245 16.4906 122.251 14.6892V10.1828H120.617V8.56328H121.527C122.127 8.56328 122.427 8.20242 122.427 7.48069Z" fill="#00A1B7"/>
<path d="M129.899 18.1131L130.261 17.2153L126.73 8.56329H128.628L131.162 14.8741L133.696 8.56329H135.594L131.7 18.1131C131.253 19.181 130.809 19.9291 130.367 20.3575C129.932 20.7858 129.384 21 128.725 21C128.484 21 128.257 20.9853 128.045 20.956C127.833 20.9267 127.677 20.8944 127.577 20.8592L127.454 20.824V19.1957C127.754 19.313 128.057 19.3746 128.363 19.3805C129.052 19.3746 129.564 18.9522 129.899 18.1131Z" fill="#00A1B7"/>
</g>
<defs>
<clipPath id="clip0">
<rect width="135.739" height="21" fill="white" transform="translate(0.130371)"/>
</clipPath>
</defs>
</svg>
