<svg width="120" height="19" viewBox="0 0 120 19" fill="none" xmlns="http://www.w3.org/2000/svg">
<path fill-rule="evenodd" clip-rule="evenodd" d="M16.1895 11.5693L15.2462 15.1025L14.8084 13.2749L15.3254 11.3386C15.3891 11.1 15.6342 10.9582 15.8728 11.0219C16.1114 11.0856 16.2532 11.3307 16.1895 11.5693ZM13.4019 11.3364L13.6035 12.0762L14.8391 17.2343L14.8474 17.2575C15.101 17.9639 15.7599 18.4339 16.4923 18.3649C17.3329 18.2858 17.9364 17.6369 17.9364 16.7923C17.9364 16.3766 17.7797 15.9949 17.4875 15.6868C17.1936 15.3768 16.7799 15.2133 16.3421 15.2133C16.0956 15.2133 15.8958 15.4136 15.8958 15.6607C15.8958 15.9077 16.0956 16.108 16.3421 16.108C16.5443 16.108 16.7224 16.1784 16.8407 16.3032C16.9774 16.4474 17.044 16.6095 17.044 16.7923C17.044 17.1705 16.7954 17.4377 16.4089 17.4741C16.1087 17.5024 15.8209 17.3021 15.6948 16.9753L15.4246 15.8473C17.0393 14.2177 18.0366 11.9753 18.0366 9.5C18.0366 4.51932 13.999 0.481689 9.01831 0.481689C4.03763 0.481689 0 4.51932 0 9.5C0 14.4807 4.03763 18.5183 9.01831 18.5183C10.1009 18.5183 11.1389 18.3276 12.1006 17.9778C11.7727 17.6929 11.5742 17.2734 11.5742 16.7898C11.5742 16.3743 11.7313 15.9927 12.0241 15.6847C12.3186 15.3749 12.7333 15.2115 13.172 15.2115C13.2906 15.2115 13.4158 15.2356 13.5504 15.2831L12.539 11.5715C12.4741 11.3332 12.6146 11.0874 12.8529 11.0225C13.0912 10.9576 13.337 11.0981 13.4019 11.3364ZM12.2749 16.8674C12.2749 17.3657 12.6745 17.7696 13.1673 17.7696C13.6602 17.7696 14.0598 17.3657 14.0598 16.8674C14.0598 16.3692 13.6602 15.9653 13.1673 15.9653C12.6745 15.9653 12.2749 16.3692 12.2749 16.8674ZM6.88799 10.0246C6.36177 8.41239 6.12194 7.73555 5.82962 7.11174C5.7461 6.9335 5.66671 6.78295 5.59377 6.66192C5.50753 6.94181 5.4473 7.34881 5.42308 7.87367C5.36115 9.21604 5.536 11.2212 5.95178 13.8693C6.02903 14.3613 5.69278 14.8228 5.20074 14.9001C4.7087 14.9773 4.2472 14.6411 4.16994 14.149C3.73694 11.3912 3.55269 9.27834 3.62134 7.79054C3.65825 6.99051 3.76814 6.35061 3.96708 5.85595C4.22288 5.2199 4.64868 4.77774 5.25113 4.63966C5.82003 4.50927 6.32478 4.73655 6.72898 5.17324C6.99329 5.45878 7.22799 5.8452 7.46285 6.3464C7.79922 7.06422 8.05047 7.77328 8.60262 9.46489L8.60694 9.47812C9.11544 11.036 9.3442 11.6864 9.62599 12.3086C9.78724 12.6647 9.93452 12.9233 10.0576 13.0745L10.0669 13.0857C10.1018 13.0687 10.1309 13.0401 10.165 12.9945C10.28 12.8406 10.3806 12.5574 10.4444 12.1589C10.5732 11.355 10.5371 10.2198 10.3658 8.81629C10.1713 7.22303 9.86291 5.96949 9.4516 5.0628C9.24583 4.60922 9.44673 4.07472 9.90031 3.86896C10.3539 3.6632 10.8884 3.86409 11.0941 4.31767C11.5908 5.41249 11.9412 6.8368 12.1561 8.59774C12.3463 10.1553 12.3869 11.4353 12.2254 12.444C12.1194 13.1061 11.9255 13.6518 11.6096 14.0745C11.2083 14.6111 10.6301 14.911 9.94352 14.911C9.42723 14.911 9.00983 14.6443 8.65884 14.2132C8.42063 13.9205 8.20275 13.538 7.98296 13.0527C7.66301 12.3462 7.42377 11.666 6.8923 10.0378L6.88799 10.0246Z" fill="#00A1B7"/>
<path fill-rule="evenodd" clip-rule="evenodd" d="M54.0684 7.62954C55.0371 7.62954 55.8767 8.00089 56.5872 8.74361C57.2976 9.48633 57.6528 10.3868 57.6528 11.445C57.6528 12.5032 57.2964 13.4036 56.5834 14.1463C55.8705 14.889 55.0322 15.2604 54.0684 15.2604C53.7951 15.2604 53.5281 15.2281 53.2673 15.1635C53.0065 15.0989 52.7842 15.0182 52.6003 14.9213C52.4165 14.8245 52.2538 14.7251 52.1122 14.6232C51.9706 14.5214 51.87 14.4407 51.8104 14.3811L51.6986 14.2693V15.1114H50.1784V4.42517H51.6986V8.62811C51.7682 8.55856 51.8676 8.46665 51.9967 8.35239C52.1259 8.23813 52.3966 8.08909 52.809 7.90527C53.2213 7.72145 53.6411 7.62954 54.0684 7.62954ZM31.6469 4.42518H29.9702V12.138L24.016 4.42518H22.5703V15.1114H24.247V7.40599L30.2012 15.1114H31.6469V4.42518ZM35.4071 15.1114V7.78605H33.8794V15.1114H35.4071ZM35.5636 5.49827C35.5636 5.76157 35.4767 5.98016 35.3028 6.15404C35.1289 6.32792 34.9103 6.41486 34.647 6.41486C34.3837 6.41486 34.1651 6.32792 33.9913 6.15404C33.8174 5.98016 33.7304 5.76157 33.7304 5.49827C33.7304 5.23497 33.8174 5.01638 33.9913 4.8425C34.1651 4.66862 34.3837 4.58168 34.647 4.58168C34.9103 4.58168 35.1289 4.66862 35.3028 4.8425C35.4767 5.01638 35.5636 5.23497 35.5636 5.49827ZM46.7237 10.8414L46.7237 15.1114H48.2514V10.8414C48.2514 9.79312 48.0067 8.99576 47.5173 8.44928C47.028 7.9028 46.3561 7.62955 45.5016 7.62955C45.1886 7.62955 44.8868 7.67302 44.5961 7.75996C44.3055 7.84691 44.0708 7.94378 43.8919 8.05059C43.7131 8.1574 43.5454 8.28284 43.3889 8.42691C43.2324 8.57098 43.1306 8.67034 43.0834 8.72499C43.0362 8.77963 43.0026 8.82186 42.9828 8.85167L42.9082 8.73244C42.8586 8.65295 42.7753 8.5511 42.6586 8.4269C42.5418 8.3027 42.404 8.17974 42.245 8.05802C42.086 7.93631 41.8737 7.83446 41.6079 7.75249C41.3421 7.67052 41.0626 7.62953 40.7695 7.62953C40.4019 7.62953 40.0479 7.71399 39.7076 7.8829C39.3673 8.05182 39.1437 8.1872 39.0369 8.28904C38.9301 8.39089 38.8469 8.47659 38.7873 8.54614V7.78603H37.2596V15.1114L38.7873 15.1114V11.1469C38.7873 10.4812 38.9475 9.9583 39.2679 9.57824C39.5884 9.19819 39.987 9.00816 40.464 9.00816C40.931 9.00816 41.3023 9.16341 41.5781 9.47392C41.8538 9.78442 41.9916 10.2402 41.9916 10.8414V15.1114H43.5193V11.1469C43.5193 10.4812 43.6795 9.9583 44 9.57825C44.3204 9.1982 44.7191 9.00817 45.196 9.00817C45.663 9.00817 46.0344 9.16342 46.3101 9.47392C46.5858 9.78443 46.7237 10.2402 46.7237 10.8414ZM55.4545 13.1739C55.0074 13.6508 54.4944 13.8893 53.9156 13.8893C53.3369 13.8893 52.8227 13.6508 52.3731 13.1739C51.9235 12.6969 51.6987 12.1219 51.6987 11.4487C51.6987 10.7756 51.9235 10.2005 52.3731 9.72357C52.8227 9.24664 53.3369 9.00817 53.9156 9.00817C54.4944 9.00817 55.0074 9.24664 55.4545 9.72357C55.9016 10.2005 56.1252 10.7756 56.1252 11.4487C56.1252 12.1219 55.9016 12.6969 55.4545 13.1739ZM64.1554 15.1114L64.1554 14.3513L64.0586 14.4482C64.0139 14.4929 63.9207 14.5662 63.7791 14.668C63.6375 14.7698 63.4848 14.8618 63.3208 14.9437C63.1569 15.0257 62.9507 15.099 62.7023 15.1636C62.4539 15.2281 62.2005 15.2604 61.9422 15.2604C61.0579 15.2604 60.3412 14.9711 59.7923 14.3923C59.2433 13.8135 58.9688 13.0348 58.9688 12.0561V7.78604H60.4965V12.0561C60.4965 12.5827 60.6642 13.0199 60.9995 13.3676C61.3348 13.7154 61.7509 13.8893 62.2477 13.8893C62.829 13.8893 63.2922 13.7017 63.6375 13.3266C63.9828 12.9516 64.1554 12.4262 64.1554 11.7505V7.78605L65.6831 7.78604V15.1114H64.1554ZM71.2019 9.61922L72.193 8.62812L72.0962 8.51634C72.0365 8.45672 71.9409 8.37599 71.8093 8.27415C71.6776 8.1723 71.5248 8.07294 71.351 7.97607C71.1771 7.87919 70.9523 7.79722 70.6765 7.73015C70.4008 7.66308 70.1164 7.62955 69.8233 7.62955C69.083 7.62955 68.4658 7.84565 67.9715 8.27787C67.4771 8.71009 67.23 9.20689 67.23 9.76828C67.23 10.1757 67.3219 10.5247 67.5057 10.8153C67.6895 11.1059 67.9218 11.3195 68.2025 11.4562C68.4832 11.5928 68.7837 11.717 69.1042 11.8288C69.4246 11.9405 69.7239 12.0349 70.0021 12.1119C70.2804 12.1889 70.5114 12.2982 70.6952 12.4398C70.879 12.5814 70.9709 12.759 70.9709 12.9726C70.9709 13.2509 70.8691 13.4732 70.6654 13.6396C70.4617 13.806 70.1562 13.8892 69.7488 13.8892C69.411 13.8892 69.0818 13.806 68.7614 13.6396C68.4409 13.4732 68.2323 13.3378 68.1354 13.2335C68.0385 13.1291 67.9653 13.0422 67.9156 12.9726L66.9245 13.9638L67.0362 14.1053C67.1058 14.1948 67.2188 14.3028 67.3753 14.4295C67.5318 14.5562 67.7144 14.6816 67.923 14.8058C68.1317 14.93 68.3987 15.0369 68.7241 15.1263C69.0495 15.2157 69.3911 15.2604 69.7488 15.2604C70.5635 15.2604 71.2255 15.0369 71.7347 14.5897C72.244 14.1426 72.4986 13.6036 72.4986 12.9726C72.4986 12.5653 72.4067 12.2175 72.2228 11.9294C72.039 11.6412 71.8068 11.4276 71.5261 11.2885C71.2454 11.1494 70.9448 11.0239 70.6244 10.9121C70.3039 10.8004 70.0046 10.7072 69.7264 10.6327C69.4482 10.5582 69.2172 10.4489 69.0334 10.3048C68.8495 10.1607 68.7576 9.98188 68.7576 9.76826C68.7576 9.56457 68.8533 9.38697 69.0445 9.23544C69.2358 9.08392 69.4954 9.00816 69.8233 9.00816C70.0667 9.00816 70.3089 9.06405 70.5499 9.17583C70.7908 9.28761 70.9498 9.37951 71.0268 9.45155C71.1038 9.52359 71.1622 9.57948 71.2019 9.61922Z" fill="#161616"/>
<path fill-rule="evenodd" clip-rule="evenodd" d="M84.7372 4.47528V15.1615H83.2168V4.47528H84.7372ZM75.0376 11.4988C75.0376 10.4729 75.4164 9.57995 76.1741 8.81984C76.9317 8.05973 77.8247 7.67968 78.8531 7.67968C79.4245 7.67968 79.956 7.80264 80.4479 8.04855C80.9397 8.29447 81.2925 8.53914 81.5061 8.78258L81.8265 9.13283L80.8354 10.1239C80.7857 10.0445 80.71 9.94633 80.6081 9.82958C80.5063 9.71283 80.2852 9.5551 79.9449 9.35637C79.6045 9.15765 79.2406 9.05829 78.8531 9.05829C78.2321 9.05829 77.6943 9.29427 77.2397 9.76623C76.7851 10.2382 76.5578 10.8157 76.5578 11.4988C76.5578 12.1819 76.7851 12.7595 77.2397 13.2314C77.6943 13.7034 78.2321 13.9394 78.8531 13.9394C79.2406 13.9394 79.6045 13.8425 79.9449 13.6487C80.2852 13.455 80.5298 13.2662 80.6789 13.0824L80.9099 12.7992L81.901 13.7903C81.8712 13.8301 81.8265 13.886 81.7669 13.958C81.7073 14.03 81.5781 14.1518 81.3794 14.3232C81.1807 14.4946 80.972 14.6461 80.7534 14.7777C80.5348 14.9094 80.2516 15.0311 79.9039 15.1429C79.5561 15.2547 79.2058 15.3106 78.8531 15.3106C77.8247 15.3106 76.9317 14.9317 76.1741 14.1741C75.4164 13.4165 75.0376 12.5247 75.0376 11.4988ZM88.2665 15.1615V7.83614H86.7387V15.1615H88.2665ZM88.4229 5.54837C88.4229 5.81167 88.336 6.03026 88.1621 6.20414C87.9882 6.37802 87.7696 6.46496 87.5063 6.46496C87.243 6.46496 87.0244 6.37802 86.8506 6.20414C86.6767 6.03026 86.5897 5.81167 86.5897 5.54837C86.5897 5.28507 86.6767 5.06648 86.8506 4.8926C87.0244 4.71872 87.243 4.63178 87.5063 4.63178C87.7696 4.63178 87.9882 4.71872 88.1621 4.8926C88.336 5.06648 88.4229 5.28507 88.4229 5.54837ZM93.2116 15.2136C93.4699 15.2782 93.7357 15.3105 94.0089 15.3105C94.9777 15.3105 95.8185 14.9392 96.5315 14.1964C97.2444 13.4537 97.6008 12.5533 97.6008 11.4951C97.6008 10.4369 97.2444 9.53645 96.5315 8.79373C95.8185 8.05101 94.9777 7.67965 94.0089 7.67965C93.5817 7.67965 93.1619 7.77155 92.7495 7.95537C92.3372 8.13919 92.0677 8.28823 91.941 8.40249C91.8143 8.51676 91.7162 8.60866 91.6466 8.67821V7.83613H90.119V18.3658H91.6466V14.3194L91.751 14.4312C91.8156 14.4908 91.9186 14.5715 92.0602 14.6734C92.2018 14.7752 92.3645 14.8746 92.5483 14.9714C92.7322 15.0683 92.9532 15.1491 93.2116 15.2136ZM93.8599 9.05827C93.2787 9.05827 92.7645 9.29673 92.3173 9.77366C91.8702 10.2506 91.6467 10.8256 91.6467 11.4988C91.6467 12.172 91.8702 12.747 92.3173 13.224C92.7645 13.7009 93.2787 13.9394 93.8599 13.9394C94.4412 13.9394 94.9554 13.7009 95.4025 13.224C95.8496 12.747 96.0732 12.172 96.0732 11.4988C96.0732 10.8256 95.8496 10.2506 95.4025 9.77366C94.9554 9.29673 94.4412 9.05827 93.8599 9.05827ZM102.002 15.2136C102.26 15.2782 102.526 15.3105 102.799 15.3105C103.768 15.3105 104.609 14.9392 105.322 14.1964C106.035 13.4537 106.391 12.5533 106.391 11.4951C106.391 10.4369 106.035 9.53645 105.322 8.79373C104.609 8.05101 103.768 7.67965 102.799 7.67965C102.372 7.67965 101.952 7.77155 101.54 7.95537C101.128 8.13919 100.858 8.28823 100.731 8.40249C100.605 8.51676 100.507 8.60866 100.437 8.67821V7.83613H98.9094V18.3658H100.437V14.3194L100.541 14.4312C100.606 14.4908 100.709 14.5715 100.851 14.6734C100.992 14.7752 101.155 14.8746 101.339 14.9714C101.523 15.0683 101.744 15.1491 102.002 15.2136ZM102.65 9.05827C102.069 9.05827 101.555 9.29673 101.108 9.77366C100.661 10.2506 100.437 10.8256 100.437 11.4988C100.437 12.172 100.661 12.747 101.108 13.224C101.555 13.7009 102.069 13.9394 102.65 13.9394C103.231 13.9394 103.746 13.7009 104.193 13.224C104.64 12.747 104.863 12.172 104.863 11.4988C104.863 10.8256 104.64 10.2506 104.193 9.77366C103.746 9.29673 103.231 9.05827 102.65 9.05827ZM108.765 12.0316L114.489 12.0316L114.571 11.2715C114.571 10.2431 114.229 9.38741 113.546 8.7043C112.863 8.0212 112.008 7.67965 110.982 7.67965C109.956 7.67965 109.077 8.04604 108.344 8.77882C107.612 9.5116 107.245 10.3922 107.245 11.4206C107.245 12.4887 107.621 13.404 108.374 14.1666C109.127 14.9292 110.022 15.3105 111.061 15.3105C111.448 15.3105 111.824 15.2546 112.19 15.1428C112.555 15.0311 112.852 14.9094 113.08 14.7777C113.309 14.646 113.525 14.4945 113.729 14.3231C113.932 14.1517 114.065 14.03 114.127 13.958C114.189 13.8859 114.235 13.83 114.265 13.7903L113.274 12.7992L113.043 13.0824C112.889 13.2662 112.627 13.455 112.257 13.6487C111.887 13.8425 111.488 13.9393 111.061 13.9393C110.469 13.9393 109.959 13.7506 109.529 13.373C109.099 12.9954 108.845 12.5483 108.765 12.0316ZM110.978 8.98374C110.427 8.98374 109.964 9.14644 109.589 9.47185C109.214 9.79726 108.961 10.2183 108.832 10.735H113.072C112.983 10.2183 112.752 9.79726 112.379 9.47185C112.007 9.14644 111.54 8.98374 110.978 8.98374ZM119.314 9.05827C119.568 9.05827 119.796 9.08311 120 9.13279V7.67965H119.62C119.366 7.67965 119.114 7.71318 118.863 7.78025C118.613 7.84732 118.406 7.92184 118.245 8.00381C118.083 8.08578 117.931 8.17769 117.787 8.27954C117.643 8.38138 117.548 8.45466 117.503 8.49937L117.407 8.59625V7.83614H115.879V15.1615H117.407V11.197C117.407 10.5214 117.579 9.99598 117.924 9.6209C118.27 9.24582 118.733 9.05827 119.314 9.05827Z" fill="#00A1B7"/>
</svg>
