<svg width="279" height="230" viewBox="0 0 279 230" fill="none" xmlns="http://www.w3.org/2000/svg">
<path fill-rule="evenodd" clip-rule="evenodd" d="M93.6289 129.204C93.6289 175.802 131.405 213.579 178.004 213.579C224.603 213.579 262.379 175.802 262.379 129.204C262.379 82.6044 224.603 44.8286 178.004 44.8286C131.405 44.8286 93.6289 82.6044 93.6289 129.204Z" fill="#A3B5D6"/>
<path fill-rule="evenodd" clip-rule="evenodd" d="M160.022 104.608C160.022 94.6799 168.067 86.6315 177.99 86.6315C187.914 86.6315 195.959 94.6799 195.959 104.608V113.616H204.943V104.614C204.943 89.7289 192.882 77.6627 178.005 77.6627H178.004C163.126 77.6627 151.065 89.7289 151.065 104.614V113.616H160.022V104.608Z" fill="white"/>
<path fill-rule="evenodd" clip-rule="evenodd" d="M216.826 168.11H139.416C137.565 168.11 136.051 166.597 136.051 164.749V115.455C136.051 113.607 137.565 112.094 139.416 112.094H216.826C218.677 112.094 220.191 113.607 220.191 115.455V164.749C220.191 166.597 218.677 168.11 216.826 168.11Z" fill="white"/>
<path fill-rule="evenodd" clip-rule="evenodd" d="M178.238 127.563C180.033 127.563 181.488 128.978 181.488 130.724L181.488 141.116C183.332 142.222 184.566 144.24 184.566 146.547C184.566 150.042 181.733 152.875 178.238 152.875C174.743 152.875 171.91 150.042 171.91 146.547C171.91 144.24 173.145 142.222 174.989 141.116L174.989 130.724C174.989 128.999 176.41 127.596 178.175 127.564L178.238 127.563Z" fill="#A3B5D6"/>
<path fill-rule="evenodd" clip-rule="evenodd" d="M138.281 75.8788C138.281 110.828 109.949 139.16 75 139.16C40.0506 139.16 11.7188 110.828 11.7188 75.8788C11.7188 40.9296 40.0506 12.5976 75 12.5976C109.949 12.5976 138.281 40.9296 138.281 75.8788Z" fill="#ADC6FF"/>
<path fill-rule="evenodd" clip-rule="evenodd" d="M72.3097 64.9619C72.3097 72.3196 66.3451 78.2844 58.9873 78.2844C51.6296 78.2844 45.665 72.3196 45.665 64.9619C45.665 57.6041 51.6296 51.6395 58.9873 51.6395C66.3451 51.6395 72.3097 57.6041 72.3097 64.9619Z" fill="white"/>
<path fill-rule="evenodd" clip-rule="evenodd" d="M104.136 64.9619C104.136 72.3196 98.1713 78.2844 90.8135 78.2844C83.4558 78.2844 77.4912 72.3196 77.4912 64.9619C77.4912 57.6041 83.4558 51.6395 90.8135 51.6395C98.1713 51.6395 104.136 57.6041 104.136 64.9619Z" fill="white"/>
<path fill-rule="evenodd" clip-rule="evenodd" d="M63.859 65.1469C63.859 68.2126 61.3737 70.6979 58.3079 70.6979C55.2422 70.6979 52.7568 68.2126 52.7568 65.1469C52.7568 62.0813 55.2422 59.596 58.3079 59.596C61.3737 59.596 63.859 62.0813 63.859 65.1469Z" fill="#253368"/>
<path fill-rule="evenodd" clip-rule="evenodd" d="M96.3042 65.517C96.3042 68.5827 93.8189 71.0679 90.7532 71.0679C87.6874 71.0679 85.2021 68.5827 85.2021 65.517C85.2021 62.4513 87.6874 59.9661 90.7532 59.9661C93.8189 59.9661 96.3042 62.4513 96.3042 65.517Z" fill="#253368"/>
<path fill-rule="evenodd" clip-rule="evenodd" d="M87.2811 99.249H62.7189C59.9452 99.249 57.6758 96.9797 57.6758 94.206C57.6758 91.4323 59.9452 89.163 62.7189 89.163H87.2811C90.0548 89.163 92.3241 91.4323 92.3241 94.206C92.3241 96.9797 90.0548 99.249 87.2811 99.249Z" fill="white"/>
<path fill-rule="evenodd" clip-rule="evenodd" d="M62.7185 91.3834C61.162 91.3834 59.8959 92.6497 59.8959 94.206C59.8959 95.7624 61.162 97.0286 62.7185 97.0286H87.2806C88.8371 97.0286 90.1033 95.7624 90.1033 94.206C90.1033 92.6497 88.8371 91.3834 87.2806 91.3834H62.7185ZM87.2806 101.469H62.7185C58.7134 101.469 55.4551 98.2111 55.4551 94.206C55.4551 90.201 58.7134 86.9426 62.7185 86.9426H87.2806C91.2857 86.9426 94.5442 90.201 94.5442 94.206C94.5442 98.2111 91.2857 101.469 87.2806 101.469Z" fill="#253368"/>
<path fill-rule="evenodd" clip-rule="evenodd" d="M138.064 38.201C138.064 46.0923 131.667 52.4893 123.776 52.4893C115.884 52.4893 109.487 46.0923 109.487 38.201C109.487 30.3098 123.776 10.8398 123.776 10.8398C123.776 10.8398 138.064 30.3098 138.064 38.201Z" fill="#597EF7"/>
</svg>
