<svg width="445" height="350" viewBox="0 0 445 350" fill="none" xmlns="http://www.w3.org/2000/svg">
<path fill-rule="evenodd" clip-rule="evenodd" d="M444.011 44.5383H0.0107422V12.8101C0.0107422 5.92746 6.29381 0.347229 14.0433 0.347229H429.978C437.728 0.347229 444.011 5.92746 444.011 12.8101V44.5383Z" fill="#253368"/>
<path fill-rule="evenodd" clip-rule="evenodd" d="M428.384 349.418H15.6379C7.00778 349.418 0.0107422 343.846 0.0107422 336.972V40.629H444.011V336.972C444.011 343.846 437.014 349.418 428.384 349.418Z" fill="#E4EBF7"/>
<path fill-rule="evenodd" clip-rule="evenodd" d="M34.8764 22.4428C34.8764 26.7622 31.3863 30.2643 27.0812 30.2643C22.7766 30.2643 19.2871 26.7622 19.2871 22.4428C19.2871 18.1234 22.7766 14.6213 27.0812 14.6213C31.3863 14.6213 34.8764 18.1234 34.8764 22.4428Z" fill="#FF7946"/>
<path fill-rule="evenodd" clip-rule="evenodd" d="M63.9852 22.4428C63.9852 26.7622 60.4957 30.2643 56.1906 30.2643C51.886 30.2643 48.3965 26.7622 48.3965 22.4428C48.3965 18.1234 51.886 14.6213 56.1906 14.6213C60.4957 14.6213 63.9852 18.1234 63.9852 22.4428Z" fill="#FAAD14"/>
<path fill-rule="evenodd" clip-rule="evenodd" d="M93.0956 22.4428C93.0956 26.7622 89.6061 30.2643 85.301 30.2643C80.9964 30.2643 77.5068 26.7622 77.5068 22.4428C77.5068 18.1234 80.9964 14.6213 85.301 14.6213C89.6061 14.6213 93.0956 18.1234 93.0956 22.4428Z" fill="#7CB305"/>
<path d="M382.446 53.9758H62.4434C56.9205 53.9758 52.4434 58.453 52.4434 63.9758V268.381C52.4434 273.904 56.9205 278.381 62.4434 278.381H382.446C387.969 278.381 392.446 273.904 392.446 268.381V63.9758C392.446 58.453 387.969 53.9758 382.446 53.9758Z" fill="white"/>
<path d="M345.321 91.0676H99.5679C95.9934 91.0676 93.0957 93.9653 93.0957 97.5398V97.5775C93.0957 101.152 95.9934 104.05 99.5679 104.05H345.321C348.895 104.05 351.793 101.152 351.793 97.5775V97.5398C351.793 93.9653 348.895 91.0676 345.321 91.0676Z" fill="#E4EBF7"/>
<path d="M252.929 124.45H99.5679C95.9934 124.45 93.0957 127.348 93.0957 130.922V130.96C93.0957 134.535 95.9934 137.432 99.5679 137.432H252.929C256.504 137.432 259.401 134.535 259.401 130.96V130.922C259.401 127.348 256.504 124.45 252.929 124.45Z" fill="#E4EBF7"/>
<path d="M271.407 155.978H99.5679C95.9934 155.978 93.0957 158.876 93.0957 162.45V162.488C93.0957 166.063 95.9934 168.96 99.5679 168.96H271.407C274.982 168.96 277.88 166.063 277.88 162.488V162.45C277.88 158.876 274.982 155.978 271.407 155.978Z" fill="#E4EBF7"/>
<path d="M104.191 202.416H192.871C198.446 202.416 202.966 206.935 202.966 212.511V243.176C202.966 248.751 198.446 253.271 192.871 253.271H104.191C98.6155 253.271 94.0957 248.751 94.0957 243.176V212.511C94.0957 206.935 98.6155 202.416 104.191 202.416Z" fill="#CCD7EE" stroke="#00ACC1" stroke-width="2"/>
<path d="M133.004 233.843L132.072 230.785H127.388L126.456 233.843H123.521L128.056 220.941H131.387L135.939 233.843H133.004ZM131.422 228.5C130.561 225.728 130.074 224.161 129.963 223.797C129.857 223.434 129.781 223.147 129.734 222.936C129.541 223.686 128.987 225.541 128.073 228.5H131.422ZM140.035 233.843H137.354V220.168H140.035V233.843ZM145.537 233.843H142.856V220.168H145.537V233.843ZM150.494 228.913C150.494 229.885 150.652 230.621 150.969 231.119C151.291 231.617 151.812 231.866 152.533 231.866C153.248 231.866 153.761 231.62 154.071 231.128C154.388 230.63 154.546 229.891 154.546 228.913C154.546 227.94 154.388 227.211 154.071 226.724C153.755 226.238 153.236 225.995 152.516 225.995C151.801 225.995 151.285 226.238 150.969 226.724C150.652 227.205 150.494 227.934 150.494 228.913ZM157.288 228.913C157.288 230.512 156.866 231.763 156.022 232.666C155.179 233.568 154.004 234.019 152.498 234.019C151.555 234.019 150.723 233.814 150.002 233.404C149.281 232.988 148.728 232.393 148.341 231.62C147.954 230.846 147.761 229.944 147.761 228.913C147.761 227.307 148.18 226.059 149.018 225.169C149.855 224.278 151.033 223.833 152.551 223.833C153.494 223.833 154.326 224.038 155.047 224.448C155.768 224.858 156.321 225.447 156.708 226.214C157.095 226.982 157.288 227.881 157.288 228.913ZM167.58 233.843L166.824 230.407L165.805 226.065H165.743L163.95 233.843H161.067L158.272 224.017H160.944L162.078 228.368C162.26 229.147 162.444 230.222 162.632 231.593H162.685C162.708 231.148 162.811 230.442 162.992 229.475L163.133 228.728L164.346 224.017H167.299L168.45 228.728C168.474 228.857 168.509 229.047 168.556 229.299C168.608 229.551 168.658 229.821 168.705 230.108C168.752 230.389 168.793 230.668 168.828 230.943C168.869 231.213 168.893 231.429 168.898 231.593H168.951C169.004 231.172 169.098 230.594 169.232 229.862C169.367 229.124 169.464 228.626 169.522 228.368L170.7 224.017H173.328L170.498 233.843H167.58Z" fill="#00ACC1"/>
<path d="M340.741 201.416H252.061C245.933 201.416 240.966 206.383 240.966 212.511V243.176C240.966 249.304 245.933 254.271 252.061 254.271H340.741C346.869 254.271 351.836 249.304 351.836 243.176V212.511C351.836 206.383 346.869 201.416 340.741 201.416Z" fill="#CCD7EE"/>
<path d="M273.008 220.994H277.007C278.829 220.994 280.15 221.255 280.971 221.776C281.797 222.292 282.21 223.115 282.21 224.246C282.21 225.013 282.028 225.643 281.665 226.135C281.308 226.628 280.83 226.923 280.232 227.023V227.111C281.047 227.293 281.633 227.632 281.99 228.13C282.354 228.629 282.535 229.291 282.535 230.117C282.535 231.289 282.11 232.203 281.261 232.859C280.417 233.515 279.269 233.843 277.815 233.843H273.008V220.994ZM275.732 226.083H277.314C278.053 226.083 278.586 225.968 278.914 225.74C279.248 225.511 279.415 225.133 279.415 224.606C279.415 224.114 279.233 223.762 278.87 223.551C278.513 223.335 277.944 223.226 277.165 223.226H275.732V226.083ZM275.732 228.245V231.593H277.508C278.258 231.593 278.812 231.45 279.169 231.163C279.526 230.876 279.705 230.436 279.705 229.844C279.705 228.778 278.943 228.245 277.42 228.245H275.732ZM287.571 233.843H284.891V220.168H287.571V233.843ZM292.528 228.913C292.528 229.885 292.687 230.621 293.003 231.119C293.325 231.617 293.847 231.866 294.567 231.866C295.282 231.866 295.795 231.62 296.105 231.128C296.422 230.63 296.58 229.891 296.58 228.913C296.58 227.94 296.422 227.211 296.105 226.724C295.789 226.238 295.271 225.995 294.55 225.995C293.835 225.995 293.319 226.238 293.003 226.724C292.687 227.205 292.528 227.934 292.528 228.913ZM299.322 228.913C299.322 230.512 298.9 231.763 298.057 232.666C297.213 233.568 296.038 234.019 294.532 234.019C293.589 234.019 292.757 233.814 292.036 233.404C291.315 232.988 290.762 232.393 290.375 231.62C289.988 230.846 289.795 229.944 289.795 228.913C289.795 227.307 290.214 226.059 291.052 225.169C291.89 224.278 293.067 223.833 294.585 223.833C295.528 223.833 296.36 224.038 297.081 224.448C297.802 224.858 298.355 225.447 298.742 226.214C299.129 226.982 299.322 227.881 299.322 228.913ZM305.527 234.019C302.469 234.019 300.939 232.34 300.939 228.983C300.939 227.313 301.355 226.039 302.188 225.16C303.02 224.275 304.212 223.833 305.765 223.833C306.901 223.833 307.921 224.055 308.823 224.501L308.032 226.575C307.61 226.405 307.218 226.267 306.854 226.162C306.491 226.05 306.128 225.995 305.765 225.995C304.37 225.995 303.673 226.985 303.673 228.965C303.673 230.887 304.37 231.848 305.765 231.848C306.28 231.848 306.758 231.781 307.197 231.646C307.637 231.505 308.076 231.289 308.516 230.996V233.29C308.082 233.565 307.643 233.755 307.197 233.861C306.758 233.966 306.201 234.019 305.527 234.019ZM313.376 228.5L314.545 227.005L317.296 224.017H320.319L316.417 228.28L320.557 233.843H317.463L314.633 229.862L313.481 230.785V233.843H310.801V220.168H313.481V226.267L313.341 228.5H313.376Z" fill="black" fill-opacity="0.3"/>
</svg>
