<svg width="33" height="32" viewBox="0 0 33 32" fill="none" xmlns="http://www.w3.org/2000/svg">
<path fill-rule="evenodd" clip-rule="evenodd" d="M25.5989 31.9792C24.9677 31.9792 24.4561 31.442 24.4561 30.7793C24.4561 30.1166 24.9677 29.5794 25.5989 29.5794L31.3128 29.5794C31.9439 29.5794 32.4556 30.1166 32.4556 30.7793C32.4556 31.442 31.9439 31.9792 31.3128 31.9792L25.5989 31.9792Z" fill="#00A1B7"/>
<path fill-rule="evenodd" clip-rule="evenodd" d="M30.0558 25.1399C30.0558 24.4913 30.593 23.9796 31.2193 23.9796C31.9184 23.9796 32.4556 24.4913 32.4556 25.1399L32.4556 30.8189C32.4556 31.4675 31.9184 31.9792 31.2193 31.9792C30.593 31.9792 30.0558 31.4675 30.0558 30.8189L30.0558 25.1399Z" fill="#00A1B7"/>
<path fill-rule="evenodd" clip-rule="evenodd" d="M8.49949 1.23629C8.49949 1.86263 7.98785 2.39986 7.33925 2.39986H2.89982V6.85675C2.89982 7.48789 2.36259 7.99954 1.69988 7.99954C1.03718 7.99954 0.499954 7.48789 0.499954 6.85675V1.23629V1.14279C0.499954 0.778715 0.678719 0.454404 0.957213 0.245129C1.15129 0.0903379 1.39422 0 1.66019 0H1.69988H7.33925C7.98785 0 8.49949 0.537227 8.49949 1.23629Z" fill="#00A1B7"/>
<path fill-rule="evenodd" clip-rule="evenodd" d="M32.5 6.84513C32.5 7.47397 31.9624 7.98374 31.2992 7.98374C30.636 7.98374 30.0984 7.47397 30.0984 6.84513V1.15211C30.0984 0.523275 30.636 0.013504 31.2992 0.013504C31.9624 0.013504 32.5 0.523275 32.5 1.15211V6.84513Z" fill="#00A1B7"/>
<path fill-rule="evenodd" clip-rule="evenodd" d="M8.49949 30.7619C8.49949 30.1355 7.98785 29.5983 7.33925 29.5983H2.89982V25.1414C2.89982 24.5103 2.36259 23.9986 1.69988 23.9986C1.03718 23.9986 0.499954 24.5103 0.499954 25.1414V30.7619V30.8554C0.499954 31.2194 0.678719 31.5437 0.957213 31.753C1.15129 31.9078 1.39422 31.9981 1.66019 31.9981H1.69988H7.33925C7.98785 31.9981 8.49949 31.4609 8.49949 30.7619Z" fill="#00A1B7"/>
<path fill-rule="evenodd" clip-rule="evenodd" d="M25.6632 2.38874C25.0149 2.38874 24.5034 1.85702 24.5034 1.23711C24.5034 0.545218 25.0149 0.013504 25.6632 0.013504H31.3402C31.9886 0.013504 32.5 0.545218 32.5 1.23711C32.5 1.85702 31.9886 2.38874 31.3402 2.38874H25.6632Z" fill="#00A1B7"/>
<path fill-rule="evenodd" clip-rule="evenodd" d="M2.8888 13.1414C2.8888 12.5084 2.35709 11.9952 1.70119 11.9952C1.04528 11.9952 0.51357 12.5084 0.51357 13.1414V18.8721C0.51357 19.5051 1.04528 20.0183 1.70119 20.0183C2.35709 20.0183 2.8888 19.5051 2.8888 18.8721V13.1414Z" fill="#00A1B7"/>
<path fill-rule="evenodd" clip-rule="evenodd" d="M32.5 13.1414C32.5 12.5084 31.9624 11.9952 31.2992 11.9952C30.636 11.9952 30.0984 12.5084 30.0984 13.1414V18.8721C30.0984 19.5051 30.636 20.0183 31.2992 20.0183C31.9624 20.0183 32.5 19.5051 32.5 18.8721V13.1414Z" fill="#00A1B7"/>
<path fill-rule="evenodd" clip-rule="evenodd" d="M19.3163 32C19.9801 32 20.5183 31.4624 20.5183 30.7992C20.5183 30.136 19.9801 29.5984 19.3163 29.5984H12.9055C12.2417 29.5984 11.7035 30.136 11.7035 30.7992C11.7035 31.4624 12.2417 32 12.9055 32H19.3163Z" fill="#00A1B7"/>
<path fill-rule="evenodd" clip-rule="evenodd" d="M19.3163 2.38874C19.9801 2.38874 20.5183 1.85702 20.5183 1.20112C20.5183 0.545218 19.9801 0.013504 19.3163 0.013504H12.9055C12.2417 0.013504 11.7035 0.545218 11.7035 1.20112C11.7035 1.85702 12.2417 2.38874 12.9055 2.38874H19.3163Z" fill="#00A1B7"/>
<path d="M24.5 16C24.5 14.1729 22.2274 12.9906 17.6822 10.6261C13.5817 8.4929 11.5314 7.42631 10.0157 8.31339C8.49998 9.20047 8.49998 11.467 8.49998 16C8.49998 20.5331 8.49998 22.7996 10.0157 23.6867C11.5314 24.5738 13.5817 23.5072 17.6822 21.374C22.2274 19.0095 24.5 17.8272 24.5 16Z" fill="#00A1B7"/>
</svg>
